<svg width="8445" height="914" viewBox="0 0 8445 914" fill="none" xmlns="http://www.w3.org/2000/svg">
<path d="M135 914H0.5L0.5 724C48.6546 678.375 174.329 688.881 265.516 678.227C262.746 727.795 161.099 894.484 135 914Z" fill="#288B06"/>
<path d="M8222.5 914C8168.84 879.249 8150.99 753.125 8139.98 683.398C8286.48 684.025 8390.14 787.56 8441.5 914H8222.5Z" fill="#288B06"/>
<path d="M798.505 123.587C568.296 135.07 204.747 283.498 368.479 585.357C732.483 543.618 849.101 367.056 798.505 123.587Z" fill="#288B06"/>
<path d="M7749.9 152.062C7767.77 334.545 7892.73 621.177 8110.19 487.705C8064.43 199.444 7928.6 109.032 7749.9 152.062Z" fill="#288B06"/>
<path d="M1102.57 486.933C869.542 394.806 431.986 546.079 380.607 851.157C764.426 968.104 993.635 806.804 1102.57 486.933Z" fill="#288B06"/>
<path d="M7450.51 502.25C7480.04 702.788 7735.8 960.403 7943.34 885.269C7927.65 541.371 7700.86 398.31 7450.51 502.25Z" fill="#288B06"/>
<path d="M1.13037 1.99893C308.382 237.458 415.29 422.896 71.0623 650.999C56.7227 638.422 0.499984 623.238 0.5 585.357C0.500069 420.328 1.54461 170.757 1.13037 1.99893Z" fill="#288B06"/>
<path d="M8441.5 0C8196.17 240.829 8072.78 425.167 8358.29 647.137C8369.7 634.31 8440.53 610.701 8441.5 573C8445.76 408.119 8444.82 168.725 8441.5 0Z" fill="#288B06"/>
</svg>
