<svg width="1252" height="2695" viewBox="0 0 1252 2695" fill="none" xmlns="http://www.w3.org/2000/svg">
<path d="M637.78 2689.94C816.09 2659.83 995.192 2385.09 878.256 2159.49C601.274 2232.5 546.856 2431.63 637.78 2689.94Z" fill="#288B06" stroke="#DCE5E6"/>
<path d="M793.618 1616.83C870.346 1410.09 690.726 1053.47 382.821 1039.56C291.177 1376.69 467.183 1555.51 793.618 1616.83Z" fill="#288B06" stroke="#DCE5E6"/>
<path d="M1120 1C895.636 47.5974 1026.12 290.164 1120 217.528L1120 1Z" fill="#288B06" stroke="#DCE5E6"/>
<path d="M1120 2201V2068.7C1112.32 2053.8 1020.94 1884.76 984.618 1951.55C952.344 2049.26 1013.61 2106.57 1120 2201Z" fill="#288B06" stroke="#DCE5E6"/>
<path d="M1132.08 1502.92C1130.96 1493.49 1132.08 1233 1132.08 1233C965.155 1393.32 1001.29 1544.65 1005.32 1517.99C1027 1538.06 1133.21 1512.34 1132.08 1502.92Z" fill="#288B06" stroke="#DCE5E6"/>
<path d="M541.713 636.746C691.973 590.727 833.866 355.49 726.258 195.998C493.818 287.765 454.98 448.654 541.713 636.746Z" fill="#288B06" stroke="#DCE5E6"/>
<path d="M590.755 2011.24C599.703 1790.9 318.493 1507.42 21.4121 1589.53C38.6515 1938.46 261.376 2054.01 590.755 2011.24Z" fill="#288B06" stroke="#DCE5E6"/>
<path d="M1029.87 1202C1150.43 1060.32 1089.89 720.319 828.56 614.859C660.775 856.16 765.093 1052.98 1029.87 1202Z" fill="#288B06" stroke="#DCE5E6"/>
<path d="M585.759 2137.04C417.956 2031.58 71.6551 2120.75 3.33107 2385.68C283.067 2528.57 472.373 2409.19 585.759 2137.04Z" fill="#288B06" stroke="#DCE5E6"/>
</svg>
