<svg width="530" height="596" viewBox="0 0 530 596" fill="none" xmlns="http://www.w3.org/2000/svg">
<rect width="530" height="596" fill="#4CCE8E"/>
<path d="M142.54 178.361C122.823 186.383 112.778 217.676 135.502 235.732C165.083 220.778 163.518 200.278 142.54 178.361Z" fill="white" stroke="white"/>
<path d="M50.8815 293.591C46.3738 307.243 71.8559 327.43 104.927 324.974C108.709 303.072 86.7697 293.876 50.8815 293.591Z" fill="white" stroke="white"/>
<path d="M113.267 341.637C97.4558 335.013 66.6079 349.845 61.9589 375.752C88.1259 383.736 104.579 369.065 113.267 341.637Z" fill="white" stroke="white"/>
<path d="M280.02 245.998C255.121 241.738 216.191 261.223 218.552 287.865C258.724 291.932 277.137 274.769 280.02 245.998Z" fill="white" stroke="white"/>
<path d="M31.0769 252.617C27.5266 266.648 54.128 285.139 86.7291 280.351C89.0069 258.084 66.6533 250.385 31.0769 252.617Z" fill="white" stroke="white"/>
<path d="M183.347 218.121C162.158 224.348 153.656 259.401 180.376 284.215C211.919 271.451 208.457 247.178 183.347 218.121Z" fill="white" stroke="white"/>
<path d="M151.021 355.823C130.895 359.109 111.028 383.974 124.577 403.46C155.804 396.042 161.675 378.285 151.021 355.823Z" fill="white" stroke="white"/>
<path d="M91.148 237.43C84.2929 254.595 110.147 282.525 147.497 281.991C154.632 254.18 131.289 240.638 91.148 237.43Z" fill="white" stroke="white"/>
<path d="M22.8159 199.277C20.6534 215.988 55.9013 235.859 94.8701 227.997C94.2139 201.708 65.8023 194.21 22.8159 199.277Z" fill="white" stroke="white"/>
<path d="M64.5128 136.107C48.766 147.105 58.0376 180.764 93.5404 196.241C115.309 176.73 100.624 155.807 64.5128 136.107Z" fill="white" stroke="white"/>
<path d="M218.307 461.581L218.307 303.44" stroke="white" stroke-width="40"/>
<path d="M206.128 461.703L205.365 364.145" stroke="white" stroke-width="30"/>
<rect width="31.2082" height="67.1624" rx="10" transform="matrix(0.999868 -0.0162483 0.0261849 0.999657 342.388 290.606)" fill="white"/>
<rect width="24.7401" height="63.2567" rx="10" transform="matrix(0.999996 -0.00297248 0.00479126 0.999988 288.569 343.498)" fill="white"/>
<rect width="48.6916" height="63.2567" rx="10" transform="matrix(0.999996 -0.00297248 0.00479126 0.999988 190.135 410.679)" fill="white"/>
<path d="M363.087 201.621C363.007 194.79 368.479 189.211 375.311 189.161V189.161C382.142 189.111 387.746 194.609 387.826 201.44L388.201 233.195C388.281 240.027 382.809 245.605 375.977 245.655V245.655C369.146 245.705 363.542 240.208 363.462 233.376L363.087 201.621Z" fill="white"/>
<rect width="19.4867" height="66.1668" rx="9.74337" transform="matrix(0.00710802 0.999975 -0.99999 0.00440982 357.932 343.227)" fill="white"/>
<rect width="43.7321" height="54.5778" rx="10" transform="matrix(-0.999977 -0.0068271 0.0106608 -0.999943 239.088 350.839)" fill="white"/>
<rect width="36.7426" height="82.439" rx="10" transform="matrix(-0.74905 0.662514 -0.792325 -0.6101 230.517 351.011)" fill="white"/>
<path d="M365.959 244.088C363.031 238.104 365.825 231.684 372.2 229.749V229.749C378.575 227.814 386.116 231.096 389.044 237.08L411.662 283.307C414.589 289.291 411.795 295.711 405.42 297.646V297.646C399.045 299.581 391.504 296.298 388.576 290.314L365.959 244.088Z" fill="white"/>
<rect width="19.4866" height="58.8567" rx="9.74329" transform="matrix(0.00291767 -0.999996 0.999999 0.0018101 342.388 299.992)" fill="white"/>
<path d="M357.442 346.531C358.066 346.654 358.192 352.027 358.192 352.895C358.192 353.991 358.376 355.168 357.9 356.209C357.618 356.826 355.918 357.37 355.193 357.751" stroke="white" stroke-width="30" stroke-linecap="round"/>
<path d="M368.688 297.816C370.382 297.816 374.615 297.241 375.893 298.046C376.149 298.207 380.039 298.125 377.517 298.636C374.741 299.198 372.296 299.292 369.437 299.292" stroke="white" stroke-width="30" stroke-linecap="round"/>
<path d="M361.565 299.882C363.622 299.72 365.371 299.292 367.479 299.292C368.882 299.292 370.284 299.292 371.686 299.292C373.06 299.292 374.435 299.292 375.809 299.292C377.176 299.292 380.397 299.089 381.619 298.554C382.91 297.989 384.704 298.166 386.138 297.52C387.893 296.731 388.159 296.485 388.575 295.011C389.413 292.039 388.294 289.049 385.555 286.892" stroke="white" stroke-width="30" stroke-linecap="round"/>
<path d="M381.379 298.556C383.685 298.626 385.746 299.208 387.986 299.529C388.734 299.636 389.778 299.934 390.498 299.934C391.848 299.934 390.761 300.524 389.999 300.524C388.367 300.524 386.794 300.918 385.127 300.918C382.686 300.918 380.29 301.311 377.882 301.311" stroke="white" stroke-width="10" stroke-linecap="round"/>
<path d="M371.636 303.277C376.218 303.277 380.631 303.182 385.127 302.676C388.207 302.33 391.134 301.444 394.149 300.916C395.872 300.614 399.117 299.912 399.117 298.161" stroke="white" stroke-width="10" stroke-linecap="round"/>
<path d="M355.004 360.565C356.063 360.565 357.123 360.402 358.187 360.402C359.989 360.402 361.893 360.38 363.474 359.619C363.764 359.479 364.135 359.455 364.434 359.317C364.848 359.127 365.352 359.025 365.792 358.872C366.346 358.679 366.928 358.544 367.483 358.353C368.077 358.149 368.647 357.891 369.258 357.717C369.565 357.63 370.484 357.388 370.161 357.422C369.563 357.485 368.979 357.629 368.397 357.751C366.553 358.135 364.672 358.379 362.801 358.667C361.82 358.817 360.853 359.006 359.878 359.173C359.217 359.286 360.169 358.937 360.31 358.872C361.756 358.202 363.342 357.834 364.92 357.419" stroke="white" stroke-width="10" stroke-linecap="round"/>
<path d="M369.567 200.934C369.567 195.806 367.185 193.166 366.101 188.467C365.573 186.18 364.102 178.204 361.915 176.825C360.589 175.99 360.684 172.586 359.888 171.262C358.175 168.414 355.679 165.533 353.544 162.917C349.582 158.063 344.79 153.601 339.548 149.472C328.288 140.603 316.514 135.868 301.288 131.597C290.26 128.503 276.359 127.678 264.728 126.342C253.675 125.073 242.08 124.9 230.916 124.9C216.132 124.9 202.943 125.723 188.928 129.536C181.277 131.618 175.579 135.794 168.327 138.293C165.305 139.335 163.98 141.422 161.198 142.517" stroke="white" stroke-width="40" stroke-linecap="round"/>
<path d="M379.904 195.715C379.904 194.673 379.424 193.74 379.271 192.717C379.093 191.522 378.886 190.166 378.533 188.999C378.179 187.828 377.509 186.8 376.999 185.715C375.904 183.386 374.556 181.071 373.474 178.705C372.393 176.339 371.423 173.888 369.996 171.639C369.097 170.223 368.814 168.648 368.052 167.192C367.293 165.745 366.489 164.28 365.826 162.802C363.929 158.568 360.876 154.523 357.371 150.985C355.831 149.431 354.009 148.088 352.241 146.696C350.235 145.115 348.392 143.406 346.385 141.825C344.924 140.674 343.635 139.419 342.169 138.264C341.574 137.796 340.879 136.931 340.061 136.77" stroke="white" stroke-width="40" stroke-linecap="round"/>
<path d="M336.057 138.679C334.266 138.679 332.729 137.141 331.314 136.425C329.898 135.707 328.586 134.823 327.092 134.181C325.458 133.479 324.226 132.5 322.466 131.915C318.22 130.503 314.061 128.744 309.655 127.587C299.951 125.039 289.988 122.878 279.842 121.768C269.692 120.657 259.456 120.034 249.276 119.114C244.476 118.681 239.657 118.796 234.832 118.796C230.379 118.796 225.981 119.167 221.545 119.206C216.063 119.253 210.318 120.239 204.918 120.948C200.504 121.527 196.079 122.123 191.731 122.941C183.12 124.562 174.742 127.787 166.892 130.935C164.3 131.975 161.638 133.174 159.344 134.58C158.313 135.212 157.07 136.398 155.961 136.835" stroke="white" stroke-width="40" stroke-linecap="round"/>
<path d="M336.577 135.402C335.628 135.308 334.564 133.929 333.714 133.511C332.961 133.141 332.25 132.355 331.43 131.917C330.527 131.434 329.537 131.074 328.639 130.584C326.244 129.278 323.248 128.73 320.832 127.498C317.794 125.95 314.567 124.832 311.332 123.558C307.158 121.914 302.631 121.077 298.117 120.233C292.104 119.108 285.93 118.441 279.871 117.465C269.331 115.767 258.627 115.497 247.975 114.538C243.807 114.163 239.526 114.432 235.338 114.128C231.156 113.826 226.719 114.001 222.557 114.299C218.55 114.586 214.44 115.224 210.585 116.042C205.063 117.213 199.691 118.938 194.16 120.028C188.98 121.048 183.761 123.08 178.979 124.902C174.491 126.611 169.537 127.577 165.214 129.548C162.413 130.826 158.919 131.483 156.351 133.056C155.155 133.789 153.003 134.527 152.317 135.607" stroke="white" stroke-width="40" stroke-linecap="round"/>
<path d="M150.495 139.09C150.616 139.946 152.196 140.889 152.708 141.664C153.19 142.394 153.948 143.805 155.18 143.805" stroke="white" stroke-width="40" stroke-linecap="round"/>
<path d="M351.266 173.785C351.316 173.904 351.731 174.117 351.871 174.234C352.006 174.346 352.095 174.439 352.241 174.554C352.486 174.747 352.845 175.079 352.991 175.322C353.472 176.121 354.314 176.983 354.441 177.884C354.505 178.335 354.834 178.755 354.925 179.201C355.022 179.681 355.16 180.166 355.246 180.638C355.323 181.065 355.42 181.488 355.499 181.919C355.553 182.222 355.738 182.512 355.738 182.816" stroke="white" stroke-width="5" stroke-linecap="round"/>
<path d="M351.997 173.913C352.288 174.2 352.363 174.553 352.566 174.874" stroke="white" stroke-width="5" stroke-linecap="round"/>
<path d="M361.136 200.175C361.136 200.532 361.311 200.869 361.328 201.216C361.338 201.433 361.386 201.79 361.498 201.989C361.624 202.212 361.518 202.523 361.637 202.744C361.825 203.098 361.845 203.514 361.999 203.878" stroke="white" stroke-width="5" stroke-linecap="round"/>
<path d="M396.314 300.247C395.691 300.247 397.548 300.045 398.109 299.831C398.731 299.593 399.385 299.426 400.009 299.184C400.877 298.849 401.732 298.516 402.602 298.186C403.159 297.975 404.006 297.81 404.467 297.484C404.973 297.127 405.686 296.833 406.262 296.542C406.702 296.319 407.102 296.076 407.529 295.84C408.44 295.334 409.051 294.705 409.828 294.093" stroke="white" stroke-width="5" stroke-linecap="round"/>
<path d="M396.893 300.46C397.468 300.46 397.957 300.096 398.544 300.03C398.891 299.991 399.329 299.846 399.645 299.721C399.976 299.591 400.537 299.441 400.884 299.38C401.395 299.29 402.126 298.95 402.53 298.689C403.045 298.357 403.716 298.193 404.212 297.802C404.6 297.497 405.21 297.148 405.701 296.955C407.046 296.425 407.961 295.644 409.003 294.823" stroke="white" stroke-width="5" stroke-linecap="round"/>
<path d="M398.62 300.439C398.888 300.439 399.104 300.309 399.344 300.267C399.623 300.218 399.833 299.939 400.095 299.847C400.297 299.776 400.544 299.549 400.712 299.425C400.86 299.314 401.071 299.263 401.236 299.171C401.41 299.075 401.522 298.888 401.731 298.833" stroke="white" stroke-width="5" stroke-linecap="round"/>
<path d="M396.636 301.143C396.772 301.137 396.895 301.07 397.038 301.064C397.194 301.057 397.335 301 397.481 300.965C397.599 300.936 397.728 300.914 397.842 300.874C397.938 300.84 398.132 300.811 398.208 300.761C398.272 300.719 398.414 300.717 398.495 300.682C398.599 300.636 398.708 300.603 398.813 300.55C399.062 300.424 399.324 300.333 399.6 300.247C399.824 300.176 400.031 300.041 400.253 299.983" stroke="white" stroke-width="5" stroke-linecap="round"/>
<path d="M400.569 299.577C400.654 299.577 400.779 299.473 400.823 299.421" stroke="white" stroke-width="5" stroke-linecap="round"/>
<path d="M400.909 299.778C401.055 299.717 401.17 299.566 401.228 299.447C401.261 299.38 401.344 299.333 401.393 299.275C401.428 299.234 401.483 299.208 401.518 299.164C401.541 299.136 401.534 299.102 401.564 299.075C401.69 298.959 401.811 298.808 401.961 298.705C402.102 298.607 402.262 298.508 402.413 298.419C402.489 298.375 402.638 298.33 402.669 298.258" stroke="white" stroke-width="5" stroke-linecap="round"/>
<path d="M401.704 299.489C401.821 299.406 401.98 299.366 402.085 299.266C402.221 299.138 402.418 299.043 402.59 298.948C402.743 298.863 402.894 298.8 403.025 298.697C403.127 298.617 403.237 298.54 403.35 298.466C403.953 298.072 404.637 297.782 405.194 297.344" stroke="white" stroke-width="5" stroke-linecap="round"/>
<path d="M353.514 361.36C354.377 361.255 355.173 361.093 356.059 361.093C356.718 361.093 357.585 361.124 358.171 360.893" stroke="white" stroke-width="5" stroke-linecap="round"/>
<path d="M355.207 361.628C355.659 361.628 356.111 361.628 356.562 361.628C356.93 361.628 357.636 361.603 357.959 361.461C358.363 361.284 358.984 361.318 359.446 361.191C360.428 360.92 361.694 360.89 362.574 360.427" stroke="white" stroke-width="5" stroke-linecap="round"/>
<path d="M370.534 358.224C370.569 358.115 370.878 358.108 371 358.087C371.198 358.052 371.389 357.842 371.508 357.728C371.779 357.467 372.013 357.188 372.275 356.924C372.522 356.673 372.785 356.451 373.074 356.223C373.384 355.979 373.629 355.691 373.987 355.49C374.041 355.459 374.276 355.29 374.175 355.29" stroke="white" stroke-width="5" stroke-linecap="round"/>
<path d="M354.699 361.893C355.761 361.893 356.688 361.673 357.705 361.426C359.183 361.068 360.651 360.588 362.151 360.292" stroke="white" stroke-width="5" stroke-linecap="round"/>
<path d="M354.981 361.787C355.403 361.787 355.8 361.755 356.232 361.755C356.51 361.755 356.788 361.755 357.066 361.755C357.368 361.755 357.641 361.684 357.94 361.663C359.546 361.553 361.088 360.997 362.606 360.598" stroke="white" stroke-width="5" stroke-linecap="round"/>
<path d="M374.162 355.062C374.489 355.062 374.162 355.646 374.092 355.75C373.936 355.981 373.8 356.192 373.547 356.391C373.185 356.676 372.826 356.963 372.356 357.142C371.998 357.277 371.666 357.453 371.305 357.578C371.07 357.659 370.802 357.733 370.588 357.845" stroke="white" stroke-width="5" stroke-linecap="round"/>
<path d="M373.368 356.595C373.279 356.808 372.937 356.967 372.773 357.151C372.688 357.246 372.559 357.326 372.455 357.408C372.252 357.569 372.031 357.72 371.82 357.878C371.651 358.003 371.439 358.063 371.246 358.159C371.025 358.27 370.726 358.409 370.469 358.465C370.035 358.56 369.599 358.684 369.176 358.804C368.094 359.111 366.953 359.327 365.905 359.706C365.33 359.913 364.664 359.963 364.076 360.144C363.727 360.251 363.266 360.443 362.884 360.443" stroke="white" stroke-width="5" stroke-linecap="round"/>
<path d="M374.336 354.159C374.384 354.178 374.394 354.673 374.394 354.763C374.394 354.915 374.394 355.067 374.394 355.218" stroke="white" stroke-width="5" stroke-linecap="round"/>
<path d="M347.92 162.479C349.018 163.894 348.669 165.642 349.356 167.129C349.748 167.979 349.984 168.851 350.485 169.67C351.43 171.216 352.781 172.558 353.664 174.113C355.955 178.147 357.084 182.733 358.178 187.04C359.17 190.95 360.542 194.691 362.064 198.486C363.244 201.428 364.151 204.662 364.583 207.723C364.992 210.626 365.584 213.505 366.087 216.394C366.384 218.099 366.367 219.941 366.896 221.61C367.108 222.277 367.204 222.87 367.204 223.558" stroke="white" stroke-width="5" stroke-linecap="round"/>
<path d="M361.87 197.381C362.027 201.205 363.225 204.914 363.705 208.701C363.979 210.856 364.295 213.035 364.742 215.191C365.355 218.148 365.259 221.307 366.178 224.204" stroke="white" stroke-width="5" stroke-linecap="round"/>
<path d="M339.749 164.149C350.918 169.378 354.194 181.968 355.218 191.676C355.443 193.81 356.125 195.75 356.604 197.823C357.027 199.659 358.848 200.702 359.263 202.241C359.572 203.388 360.431 204.389 360.986 205.578C361.644 206.99 361.323 208.811 361.323 210.304" stroke="white" stroke-width="5" stroke-linecap="round"/>
<path d="M365.368 217.534C364.992 219.588 364.85 221.584 364.694 223.651" stroke="white" stroke-width="5" stroke-linecap="round"/>
<path d="M364.694 216.977V234.771" stroke="white" stroke-width="5" stroke-linecap="round"/>
<path d="M363.345 219.757V238.664" stroke="white" stroke-width="5" stroke-linecap="round"/>
<path d="M363.345 223.095C363.667 228.474 363.852 233.84 364.02 239.222" stroke="white" stroke-width="5" stroke-linecap="round"/>
<path d="M364.019 217.534V240.333" stroke="white" stroke-width="5" stroke-linecap="round"/>
<path d="M363.345 212.529C363.689 222.351 364.02 251.828 364.02 242.002" stroke="white" stroke-width="5" stroke-linecap="round"/>
<path d="M364.019 219.202C363.866 227.921 362.671 254.058 362.671 245.338" stroke="white" stroke-width="5" stroke-linecap="round"/>
<path d="M361.323 218.089C361.323 234.225 361.026 250.992 370.424 265.634C372.527 268.911 374.066 272.315 376.454 275.489C377.212 276.495 381.243 281.762 379.451 277.961C375.777 270.17 372.609 261.21 370.761 252.999C370.503 251.851 370.771 247.617 369.563 246.82C368.668 246.23 370.179 248.641 370.537 249.539C372 253.217 373.156 256.922 374.057 260.722C374.723 263.527 374.818 267.094 376.117 269.774C377.452 272.526 375.371 263.844 374.357 261C372.801 256.636 371.739 251.162 369.151 247.129C368.543 246.182 369.004 249.282 369.188 250.342C370.293 256.69 371.977 262.963 373.084 269.31C374.243 275.961 369.43 256.202 367.016 249.786C363.933 241.593 365.252 252.081 365.817 254.636C366.864 259.362 367.787 265.04 370.686 269.31C371.748 270.874 370.805 262.52 370.612 261.587C369.812 257.733 369.195 253.48 367.915 249.724C365.655 243.098 370.499 263.384 373.084 269.928C373.382 270.684 376.525 279.578 379.114 279.104C380.65 278.822 377.822 266.393 377.653 265.356C376.864 260.507 376.552 253.938 373.458 249.6C373.178 249.207 372.894 250.443 372.934 250.898C373.431 256.642 374.986 262.41 376.155 268.075C377.721 275.665 378.822 283.915 382.447 291.091C383.657 293.485 383.571 284.43 383.571 283.707" stroke="white" stroke-width="5" stroke-linecap="round"/>
<path d="M383.571 204.744C383.571 208.778 385.593 212.492 385.593 216.453C385.593 220.672 386.267 224.937 386.267 229.212C386.267 232.906 386.015 236.529 387.316 240.056C388.673 243.732 389.315 247.332 389.975 251.146C390.661 255.103 390.987 254.237 390.312 250.899" stroke="white" stroke-width="5" stroke-linecap="round"/>
<path d="M388.964 205.855C389.702 219.254 387.59 233.286 391.136 246.45C393.003 253.377 394.039 261.046 394.994 268.137C395.44 271.449 397.534 274.138 398.74 277.343C399.422 279.157 400.928 284.471 403.122 285.376" stroke="white" stroke-width="5" stroke-linecap="round"/>
<path d="M361.198 215.621C357.751 218.818 356.905 224.135 356.905 228.211C356.905 233.99 359.457 239.682 359.767 245.436C359.971 249.235 361.706 252.733 362.841 256.343C363.455 258.298 363.519 260.316 364.298 262.245C364.912 263.764 366.026 265.217 366.445 266.769C367.077 269.116 368.911 271.315 369.784 273.655C370.58 275.79 372.044 277.8 373.361 279.731C374.143 280.878 374.932 282.82 375.985 283.688C377.713 285.113 374.744 279.786 373.971 277.873C372.539 274.33 371.846 270.738 370.499 267.185C369.717 265.119 368.972 262.638 368.83 260.474C368.723 258.85 368.117 257.06 367.77 255.447C367.232 252.952 367.272 254.053 367.876 255.84C369.795 261.52 370.498 267.397 371.692 273.196C372.088 275.119 372.407 277.069 373.335 278.879C373.612 279.419 374.034 279.94 374.077 280.54C374.161 281.726 374.296 278.168 374.554 276.999" stroke="white" stroke-width="5" stroke-linecap="round"/>
<path d="M402.22 283.293C407.906 285.898 407.741 294.179 406.487 298.834C405.858 301.168 403.119 302.486 400.789 303.446C398.442 304.415 395.046 304.618 392.468 305.326C389.124 306.246 386.262 307.409 383.034 308.474C380.771 309.22 378.279 310.395 376.197 311.425C375.209 311.914 370.522 312.814 370.102 313.392C370.044 313.472 374.267 313.589 374.792 313.589C376.064 313.589 377.336 313.589 378.608 313.589C380.291 313.589 381.702 312.645 382.928 311.818C384.776 310.571 386.695 309.301 388.387 307.906C389.667 306.85 391.025 305.185 392.786 304.627C396.649 303.401 401.36 299.592 403.651 296.758C404.486 295.725 406.143 294.493 406.54 293.348C406.659 293.005 408.338 290.873 408.686 290.79C410.891 290.271 411.06 296.615 410.78 297.654C410.054 300.35 407.534 301.636 405.93 303.752C405.504 304.315 404.344 304.536 403.757 305.02C402.742 305.858 401.962 306.649 400.789 307.381C398.891 308.566 397.19 309.616 395.065 310.441C389.489 312.605 382.998 314.445 376.939 315.556C375.961 315.735 370.525 317.037 372.195 316.693C375.727 315.964 379.788 314.382 382.902 312.802C386.296 311.079 388.987 308.602 391.938 306.419C394.779 304.318 398.102 302.321 400.312 299.731C401.285 298.59 404.346 296.451 404.605 295.097C404.822 293.967 405.777 292.86 406.513 291.949" stroke="white" stroke-width="5" stroke-linecap="round"/>
<path d="M408.898 288.804C412.732 290.85 410.545 298.318 406.513 299.427" stroke="white" stroke-width="5" stroke-linecap="round"/>
<path d="M312.252 363.004C310.151 363.196 316.219 364.214 318.239 364.728C323.515 366.071 329.412 366.346 334.929 366.521C338.702 366.641 342.567 366.355 346.356 366.355C347.854 366.355 349.355 366.301 350.835 366.09C351.71 365.966 354.338 366.195 353.496 365.963C350.692 365.192 347.328 364.918 344.42 364.63C337.561 363.951 330.62 363.837 323.727 363.533C323.674 363.531 319.285 363.304 319.308 363.219C319.357 363.038 323.047 363.219 323.085 363.219C329.625 363.358 336.025 363.317 342.507 362.494C342.569 362.487 344.65 362.129 344.61 362.122C343.521 361.922 342.281 361.917 341.177 361.867C333.276 361.511 325.205 361.994 317.372 362.827C314.654 363.117 311.913 363.418 309.223 363.856C307.445 364.146 309.465 363.824 309.686 363.778C312.202 363.252 314.798 362.845 317.383 362.651" stroke="white" stroke-width="5" stroke-linecap="round"/>
<path d="M308.831 363.708C309.417 364.07 310.373 364.124 311.088 364.237C311.973 364.376 312.898 364.728 313.748 364.981C315.418 365.478 317.134 365.672 318.88 365.912C320.98 366.201 322.973 366.792 325.081 367.058C329.935 367.672 334.812 368.042 339.716 368.117C343.688 368.177 347.647 368.469 351.642 368.469C354.51 368.469 357.283 368.462 359.934 367.588" stroke="white" stroke-width="5" stroke-linecap="round"/>
<path d="M128.706 148.299C128.706 146.172 129.455 144.232 130.56 142.307C135.735 133.296 144.694 125.731 153.037 118.711C156.82 115.529 160.733 112.447 164.464 109.223C164.773 108.956 166.945 106.282 166.356 108.224C163.873 116.417 156.731 123.159 149.291 128.699C148.913 128.98 139.303 134.708 139.226 134.005C139.053 132.439 140.714 129.652 141.269 128.262C143.022 123.871 145.323 119.666 147.475 115.403C148.967 112.445 150.198 109.287 152.091 106.477C152.397 106.023 150.028 110.09 149.896 110.284C143.296 120.011 135.093 128.331 126.058 136.564C121.277 140.92 126.695 132.848 127.458 131.633C129.736 128.003 132.14 124.474 134.004 120.678C134.183 120.312 136.123 116.341 136.123 116.433C136.123 125.555 129.33 133.946 125.036 141.995C123.934 144.06 124.939 141.735 125.074 141.37C126.046 138.746 127.576 136.282 129.16 133.88C130.906 131.235 132.783 128.647 134.685 126.077C135.884 124.456 138.356 119.509 138.62 121.395C139.374 126.782 133.907 134.208 130.371 138.374C126.123 143.38 128.824 139.672 131.355 136.876C138.619 128.85 145.593 119.916 154.891 113.343C160.451 109.412 147.981 124.083 143.35 128.761C136.361 135.821 127.924 142.165 118.793 147.3C117.789 147.865 120.443 145.831 121.252 145.085C125.691 140.989 129.94 136.775 134.609 132.85C139.386 128.835 144.387 124.988 149.366 121.146C151.782 119.282 153.106 118.432 151.864 121.957C147.949 133.066 140.377 142.408 132.566 151.857C132.09 152.433 123.029 163.871 125.755 158.224C130.138 149.144 132.945 139.653 136.426 130.322C136.53 130.042 138.535 122.781 139.453 122.644C140.075 122.551 139.623 123.683 139.604 124.204C139.549 125.674 139.347 127.269 138.999 128.699C137.13 136.364 133.112 143.996 129.16 151.077C126.055 156.642 126.537 151.52 127.079 148.487C127.494 146.17 127.97 143.636 128.971 141.433C129.296 140.719 129.049 145.963 129.009 146.333C128.747 148.772 128.291 151.195 128.063 153.636C127.921 155.163 129.514 151.521 129.539 151.483C133.074 145.86 136.759 140.394 140.664 134.941C141.408 133.901 143.503 129.372 145.129 128.948C145.778 128.779 145.15 130.077 145.053 130.634C144.838 131.867 144.136 135.42 143.918 136.377C142.76 141.449 141.251 146.471 139.226 151.358C138.667 152.706 138.192 156.282 137.031 155.228C136.037 154.326 137.119 149.206 137.182 148.487C137.609 143.619 137.934 138.595 139.226 133.817C139.479 132.881 140.053 130.093 141.155 129.385C143.216 128.063 140.537 133.679 139.831 135.752C137.718 141.958 133.923 147.325 130.182 152.918C130.147 152.971 129.037 155.022 129.539 153.574C130.774 150.009 132.927 146.607 135.063 143.368C144.131 129.62 155.398 116.106 168.437 104.729C171.753 101.836 175.302 98.7 179.259 96.3643C182.984 94.1658 180.313 100.065 180.016 100.796C175.539 111.818 165.797 121.723 155.345 129.323C151.149 132.374 146.641 135.09 142.026 137.688C140.574 138.505 140.309 138.804 141.42 137.438C150.493 126.286 164.451 117.978 177.67 110.472C186.561 105.423 195.705 100.68 205.103 96.3018C207.468 95.2003 216.355 89.8829 219.785 90.2157C222.783 90.5066 216.282 94.3334 213.996 95.9585C206.87 101.023 198.581 104.876 190.195 108.318C180.52 112.288 170.485 115.621 160.416 118.836C157.63 119.725 150.018 122.509 151.675 120.459C154.694 116.724 160.207 113.824 164.616 111.408C173.466 106.558 183.015 102.618 192.503 98.7051C198.331 96.3016 204.181 93.9282 210.136 91.745C211.813 91.1304 216.679 89.2589 215.358 90.3093C211.233 93.59 205.996 95.9252 200.903 97.9872C190.421 102.231 179.46 105.769 168.513 109.098C157.6 112.417 146.555 115.522 135.366 118.149C134.757 118.293 129.098 119.575 127.798 119.71C126.047 119.892 127.387 119.016 127.95 118.649C143.591 108.445 164.312 103.045 182.816 97.6751C189.328 95.7854 195.935 93.8152 202.644 92.4317C208.778 91.1667 201.904 94.6408 200.865 95.1782C182.162 104.858 160.674 110.594 139.831 116.214C132.479 118.197 124.893 119.939 117.771 122.457C117.47 122.563 116.584 122.899 116.901 122.831C117.604 122.681 118.269 122.428 118.944 122.207C123.543 120.698 128.099 119.102 132.679 117.556C162.031 107.652 191.496 98.3894 221.488 89.9036C224.11 89.1617 231.79 86.5901 229.358 87.6876C222.572 90.7504 215.305 93.3488 208.244 95.9273C181.243 105.788 152.853 112.958 125.074 121.146C122.034 122.042 113.056 125.035 116.068 124.08C127.236 120.537 138.304 117.131 149.745 114.154C170.343 108.796 191.305 103.018 212.482 99.3605C214.393 99.0305 214.796 99.2222 213.012 100.11C210.811 101.204 204.582 103.685 202.72 104.354C179.155 112.828 152.79 117.001 127.836 121.676C122.634 122.651 114.953 124.071 109.371 124.891C107.979 125.095 104.349 125.986 105.133 125.016C106.215 123.676 108.52 123.399 110.317 122.769C115.012 121.122 119.229 119.869 124.09 118.43C148.503 111.206 173.313 105.089 198.103 98.8299C198.364 98.7641 208.856 95.5129 201.509 98.0497C192.773 101.066 184.202 104.404 175.475 107.444C155.693 114.335 135.798 121.007 115.917 127.7C111.998 129.019 111.24 129.406 115.463 127.575C120.251 125.499 125.002 123.325 129.917 121.458C130.213 121.345 136.686 118.496 135.744 121.021C134.974 123.086 132.521 124.912 130.75 126.389C126.456 129.97 121.758 133.228 117.128 136.502" stroke="white" stroke-width="5" stroke-linecap="round"/>
<path d="M135.423 144.952C139.149 141.878 144.111 140.484 148.483 138.153C151.907 136.327 155.471 134.895 158.694 132.808C163.862 129.463 169.434 126.214 175.045 123.407C179.253 121.301 184.162 119.836 188.665 118.23C197.262 115.164 206.244 113.205 215.227 111.081C245.428 103.941 276.415 100.539 307.82 100.141C320.462 99.9801 332.892 100.841 345.356 102.673C349.802 103.326 354.216 104.278 358.603 105.163C360.624 105.571 362.911 106.17 365.014 106.17" stroke="white" stroke-width="5" stroke-linecap="round"/>
<path d="M237.09 103.654C238.549 103.244 240.006 102.829 241.466 102.423C242.889 102.027 244.336 101.686 245.741 101.248C246.375 101.05 248.102 100.87 247.572 100.52C246.83 100.031 245.665 100.475 244.723 100.576C240.791 100.998 236.88 101.548 232.968 102.087C218.473 104.086 201.492 106.647 187.24 108.831C170.223 111.438 152.878 113.711 136.118 117.379C135.915 117.423 133.162 117.998 132.403 118.302C132.151 118.403 132.956 118.443 133.235 118.414C136.743 118.048 140.284 117.176 143.7 116.497C154.865 114.28 166.007 111.997 177.114 109.586C198.46 104.952 219.943 100.654 241.195 95.7357C242.1 95.5261 244.785 94.8344 243.858 94.9662C238.488 95.7299 233.157 97.3259 227.948 98.5757C196.795 106.051 165.561 113.312 134.371 120.681C126.259 122.597 118.015 124.341 110.048 126.655C109.654 126.769 108.547 127.207 108.963 127.172C110.381 127.055 113.58 126.396 114.441 126.221C138.664 121.281 162.405 114.271 186.002 107.642C194.776 105.176 203.525 102.649 212.191 99.9328C217.93 98.1341 224.147 96.4786 229.525 93.9729C238.521 89.7819 211.116 101.721 201.742 105.305C185.199 111.63 168.283 117.204 151.502 123.073C149.078 123.921 141.76 126.342 144.277 125.703C147.193 124.963 150.07 123.723 152.859 122.737C164.826 118.507 176.486 113.807 188.071 108.915C190.665 107.82 193.65 106.838 196.009 105.389C197.271 104.614 193.178 106.522 191.803 107.152C180.811 112.189 169.374 116.525 158.422 121.618C156.545 122.491 152.972 123.635 151.57 125.144C150.503 126.291 154.876 124.172 156.489 123.605C168.117 119.516 179.832 115.664 191.65 111.965C195.586 110.733 199.496 109.452 203.421 108.201C204.392 107.892 201.812 109.293 200.945 109.768C187.314 117.233 141.982 133.163 156.998 127.802C167.456 124.068 177.864 120.249 188.343 116.553C192.61 115.048 196.982 113.602 201.03 111.713C202.636 110.963 202.203 111.026 200.894 111.615C189.919 116.553 178.796 121.026 167.107 124.724C160.162 126.921 139.231 133.299 146.176 131.104C179 120.725 210.153 107.012 242.484 95.6797C243.493 95.3261 246.337 94.054 245.537 94.6724C244.659 95.3514 243.391 95.5725 242.314 96.0155C235.022 99.0143 227.697 101.917 220.196 104.55C199.985 111.643 179.34 117.807 158.694 123.968C157.426 124.347 156.159 124.728 154.894 125.116C153.874 125.428 150.847 125.775 151.858 126.109C152.953 126.47 154.112 125.54 155.234 125.242C158.233 124.442 162.303 123.356 165.156 122.583C189.148 116.089 212.973 109.18 236.988 102.745C246.321 100.244 255.701 97.8765 265.111 95.5818C266.156 95.3269 267.929 94.9094 269.147 94.5744C269.382 94.5101 268.681 94.7087 268.452 94.7843C240.422 104.032 211.246 110.69 182.152 117.225C178.634 118.015 168.081 120.376 171.585 119.547C179.92 117.575 188.306 115.754 196.688 113.923C222.295 108.329 247.963 102.877 273.252 96.3512C277.967 95.1346 292.107 91.5648 287.262 92.364C278.357 93.8331 269.635 96.3085 260.785 98.0161C244.696 101.121 228.446 104.142 212.055 105.949C210.949 106.071 208.438 106.297 207.136 106.368C206.752 106.389 205.923 106.626 205.983 106.312C206.093 105.737 209.962 104.846 210.291 104.746C216.93 102.716 223.701 100.965 230.272 98.7856C230.991 98.5471 233.134 97.8047 232.409 98.0301C230.532 98.6133 228.67 99.248 226.845 99.9328C225.693 100.365 224.542 100.821 223.419 101.304C222.806 101.568 224.808 101.279 225.488 101.178C233.352 100.005 241.503 97.8692 248.963 95.5398C249.647 95.3264 250.327 95.1064 250.999 94.8682C251.521 94.6831 252.776 94.5286 252.457 94.1407C251.78 93.3169 245.933 94.5403 245.198 94.6444C241.722 95.1361 238.225 95.681 234.817 96.4352C234.338 96.5413 232.821 97.0383 234.275 96.687C240.982 95.0664 247.641 93.4644 254.476 92.2241C258.635 91.4693 262.816 90.7525 267.01 90.1395C267.226 90.1079 268.5 89.8584 267.553 90.1954C266.676 90.5076 264.335 91.1909 263.72 91.3706C259.609 92.5724 255.445 93.6456 251.338 94.8543C248.44 95.7071 245.198 96.5127 242.586 97.9042C240.852 98.8278 244.826 98.4506 244.842 98.4498C249.213 98.2303 253.564 97.7269 257.919 97.3585C266.882 96.6003 275.938 95.8833 284.956 95.8476C285.544 95.8452 286.161 95.7501 286.72 95.9035C286.864 95.9432 286.521 96.107 286.38 96.1554C284.482 96.8098 282.38 97.1987 280.41 97.6663C273.846 99.2244 267.198 100.742 260.463 101.71C259.129 101.901 256.849 102.445 255.443 102.213C254.577 102.07 256.75 101.199 257.546 100.884C263.47 98.5387 270.562 97.8311 276.95 96.8549C280.637 96.2914 284.333 95.7603 288.009 95.1481C288.922 94.9959 291.188 94.5317 288.823 95.204C278.815 98.0486 268.248 99.8481 257.919 101.668C236.857 105.378 215.636 108.487 194.618 112.356C180.891 114.883 167.419 118.073 153.86 121.128C151.508 121.658 148.19 121.723 146.244 123.045C144.809 124.02 144.739 125.83 144.904 127.326C145.408 131.894 139.954 135.118 139.086 139.414" stroke="white" stroke-width="5" stroke-linecap="round"/>
<path d="M141.529 164.092C138.84 163.845 140.164 156.401 140.545 155.026C141.066 153.146 140.949 150.331 142.139 148.674C143.932 146.18 144.611 143.099 146.278 140.546C149.235 136.016 153.083 131.986 158.168 128.724C159.297 128 160.79 127.553 161.985 126.877C162.821 126.404 162.354 127.005 162.052 127.325C161.185 128.245 160.006 128.969 158.931 129.717C157.451 130.747 152.88 133.687 154.25 132.557C157.675 129.732 163.248 128.166 167.48 126.317" stroke="white" stroke-width="5" stroke-linecap="round"/>
<path d="M143.361 143.945C146.718 141.175 151.637 140.059 155.861 138.419C159.638 136.953 163.953 136.009 167.48 134.124C170.486 132.517 173.536 130.643 176.656 129.227C179.31 128.023 181.926 126.637 184.679 125.589C186.954 124.723 184.266 126.218 183.661 126.471C177.413 129.085 170.469 130.837 163.782 132.501C161.621 133.038 159.445 133.536 157.286 134.082C157.111 134.126 154.861 134.903 154.454 134.655C153.713 134.204 159.96 131.116 160.119 131.046C166.794 128.074 173.824 125.788 180.88 123.519C184.074 122.491 187.243 121.415 190.429 120.371C191.598 119.988 195.008 118.919 194.093 119.63C190.498 122.42 184.891 124.08 180.507 125.743C172.524 128.772 164.303 131.347 155.98 133.662C154.035 134.203 152.067 134.785 150.077 135.215C148.869 135.476 150.234 134.827 150.434 134.725C157.337 131.208 165.059 128.53 172.467 125.841C183.169 121.956 194.257 118.783 205.508 116.16C206.338 115.966 207.168 115.763 208.018 115.642C209.253 115.467 208.959 115.757 208.29 116.3C206.577 117.688 204.382 118.76 202.319 119.741C196.331 122.59 189.778 124.476 183.22 126.205C180.82 126.838 178.417 127.457 176.029 128.122C175.762 128.196 173.552 128.911 175.198 128.108C187.701 122.004 202.358 118.283 216.126 114.705C219.102 113.932 227.836 111.201 225.031 112.326C219.453 114.565 213.617 116.428 207.781 118.147C199.629 120.547 191.277 122.499 182.915 124.33C182.408 124.441 179.282 125.429 178.488 125.184C177.555 124.895 180.025 124.114 180.914 123.743C188.274 120.666 196.596 119.023 204.524 117.307C216.759 114.66 229.093 112.31 241.5 110.284C243.657 109.932 249.913 108.458 247.997 109.347C246.361 110.105 244.537 110.664 242.738 111.081C236.852 112.447 230.613 112.854 224.556 113.348C214.762 114.147 204.927 114.826 195.093 115.181C193.092 115.253 195.743 114.818 195.823 114.803C198.934 114.218 202.086 113.771 205.236 113.362C217.238 111.802 229.332 110.784 241.399 109.64C255.366 108.316 269.35 107.159 283.327 105.919C287.292 105.567 291.252 105.191 295.201 104.73C295.545 104.689 296.576 104.561 296.235 104.618C295.14 104.798 293.453 105.059 292.487 105.205C275.352 107.807 258.033 110.646 240.652 111.809C236.454 112.09 239.721 111.346 241.687 110.927C251.152 108.913 261.135 108.461 270.844 107.878C286.264 106.95 332.609 105.533 317.149 105.667C311.646 105.715 306.123 106.241 300.628 106.478C288.409 107.006 276.161 107.329 263.923 107.15C261.404 107.113 258.862 107.048 256.359 106.786C254.791 106.622 256.372 106.466 256.901 106.409C263.993 105.637 271.232 105.52 278.358 105.009C286.865 104.4 295.564 103.945 303.953 102.561C304.397 102.488 304.84 102.411 305.276 102.309C305.926 102.157 305.353 102.147 305.106 102.141C301.612 102.063 298.08 102.134 294.59 102.253C282.988 102.65 271.412 103.649 259.819 104.212C250.849 104.648 241.88 105.078 232.918 105.611C206.093 107.208 286.505 101.749 313.265 99.5252C318.241 99.1117 333.138 97.7407 328.14 97.9023C319.962 98.1669 311.726 99.2813 303.597 100.001C281.566 101.951 259.537 103.647 237.396 104.408" stroke="white" stroke-width="5" stroke-linecap="round"/>
<path d="M219.688 87.7885C225.711 86.5778 231.751 85.4282 237.803 84.3189C241.903 83.5672 239.342 84.3138 237.837 84.8226C227.831 88.2028 216.642 89.7545 206.084 91.3981C201.192 92.1597 196.277 92.8041 191.379 93.5386C190.814 93.6234 189.151 93.9692 189.683 93.7904C191.009 93.3447 192.399 93.0406 193.77 92.6992C203.268 90.3342 213.068 89.0492 222.843 87.7326C228.906 86.9159 233.695 86.3058 239.634 85.606C240.888 85.4583 242.143 85.3172 243.4 85.1863C243.996 85.1242 244.654 84.8633 245.198 85.0744C246.196 85.4619 243.201 85.852 242.179 86.1936C238.483 87.4282 234.755 88.5629 230.95 89.5513C219.787 92.4516 208.378 94.582 197.095 97.1202C190.829 98.5296 209.459 93.7949 215.786 92.5873C225.243 90.7822 234.717 89.5958 244.418 89.2995" stroke="white" stroke-width="5" stroke-linecap="round"/>
<path d="M200.148 116.747C210.018 116.747 219.865 116.244 229.746 116.244C241.76 116.244 253.775 116.244 265.789 116.244C271.637 116.244 277.594 116.12 283.361 116.999C286.875 117.535 290.467 117.389 294.013 117.629C297.48 117.863 300.872 118.429 304.326 118.706C318.539 119.844 332.663 121.848 346.56 124.554C350.308 125.284 354.143 125.718 357.857 126.569C362.96 127.738 367.977 129.105 373.071 130.29C375.78 130.92 378.529 131.573 381.263 132.109C382.238 132.3 383.208 132.487 384.198 132.613C385.507 132.779 383.556 132.393 383.129 132.221C375.579 129.179 366.641 128.758 358.603 127.016C352.419 125.677 346.261 123.97 340.641 121.42C338.162 120.296 335.187 119.917 332.448 119.462C322.726 117.843 312.979 116.911 303.172 115.74C299.952 115.356 296.781 114.775 293.572 114.341C291.352 114.041 294.221 114.588 294.675 114.705C300.235 116.135 305.771 117.157 311.551 117.811C324.819 119.312 338.234 120.206 351.615 120.609C358.47 120.815 365.486 121.045 372.342 120.637C376.198 120.407 367.99 119.554 367.525 119.504C348.995 117.492 330.16 116.633 311.484 116.3C307.943 116.237 297.325 116.02 300.866 116.02C309.49 116.02 318.155 117.235 326.732 117.853C336.848 118.581 346.991 119.056 357.144 119.21C360.556 119.261 364.026 119.369 367.44 119.238C369.695 119.151 366.488 118.666 366.405 118.65C360.664 117.532 354.777 117.072 348.901 116.775C338.421 116.246 327.841 116.04 317.352 116.51C315.483 116.593 313.541 116.713 311.67 116.859C310.865 116.922 308.612 116.817 309.279 117.195C309.789 117.484 312.283 117.502 312.501 117.517C316.893 117.807 321.295 117.893 325.697 118.007C342.279 118.434 358.724 119.538 375.191 121.168C377.185 121.366 376.232 121.459 374.954 121.532C371.351 121.737 367.757 121.979 364.166 122.302C358.064 122.849 339.676 123.547 345.814 123.547C350.846 123.547 355.863 123.799 360.893 123.799C361.67 123.799 363.734 123.9 361.69 123.743C357.015 123.382 352.357 122.85 347.68 122.483C340.888 121.952 334.022 121.551 327.309 120.511C323.734 119.957 318.38 119.229 323.187 116.104C325.646 114.505 328.293 113.266 330.972 111.935C331.116 111.863 338.518 108.918 338.113 107.598C337.817 106.629 333.22 106.74 332.736 106.73C329.451 106.665 326.155 106.815 322.882 107.038C317.345 107.416 311.777 107.901 306.276 108.549C305.193 108.677 301.991 108.988 303.071 109.137C305.211 109.431 307.74 109.282 309.872 109.29C317.37 109.32 324.836 108.794 332.278 108.073C335.069 107.803 337.938 107.476 340.725 107.15C341.91 107.012 345.45 106.85 344.27 106.688C340.791 106.21 336.247 107.35 332.855 107.682C320.318 108.906 307.708 109.687 295.133 110.592C289.158 111.022 283.001 111.152 277.069 111.935C270.873 112.752 289.6 111.377 295.862 111.053C307.547 110.449 319.199 109.602 330.854 108.689C335.881 108.295 340.908 107.9 345.933 107.486C346.696 107.423 347.459 107.352 348.222 107.29C348.578 107.261 347.523 107.408 347.171 107.458C328.11 110.173 308.886 111.835 289.773 114.271C289.31 114.33 287.879 114.491 289.281 114.425C292.649 114.266 296.015 113.918 299.373 113.669C314.686 112.536 330.015 111.533 345.339 110.508C351.111 110.121 357.076 110.052 362.809 109.332C365.837 108.952 356.774 110.198 353.752 110.606C332.543 113.463 311.163 115.055 289.807 116.887C276.247 118.051 317.022 115.523 330.616 114.677C338.541 114.184 346.527 113.704 354.396 112.76C354.839 112.707 355.282 112.654 355.719 112.578C355.828 112.559 355.525 112.466 355.414 112.466C353.035 112.466 350.642 112.615 348.273 112.774C330.336 113.979 312.495 115.796 294.522 116.691C288.482 116.992 306.648 115.442 312.298 113.656C313.18 113.377 312.798 113.317 312.111 113.264C309.994 113.1 307.762 113.246 305.649 113.334C294.427 113.799 283.182 114.493 271.997 115.376C270.909 115.462 269.813 115.511 268.74 115.684C267.549 115.876 271.163 115.543 272.37 115.432C280.51 114.686 288.621 113.748 296.761 112.998C299.231 112.77 306.629 112.418 304.156 112.214C299.368 111.82 294.166 112.363 289.4 112.578C279.706 113.017 270.032 113.682 260.345 114.201C255.41 114.466 240.636 115.482 245.537 114.943C255.938 113.799 266.408 113.209 276.814 112.103C278.511 111.922 280.368 111.715 282.072 111.487C282.876 111.379 285.132 111.375 284.447 111.011C284.022 110.786 282.131 111.108 281.869 111.137C279.181 111.434 276.527 111.916 273.863 112.326C267.739 113.27 261.526 113.882 255.426 114.915C255.191 114.954 254.782 114.875 254.73 115.069C254.57 115.664 256.204 114.961 256.935 114.873C259.87 114.518 262.794 114.093 265.721 113.697C271.422 112.928 277.153 112.254 282.819 111.319C282.88 111.309 285.328 111.016 283.548 110.969C281.064 110.904 278.544 110.993 276.068 111.123C262.013 111.862 220.111 116.464 234.071 114.929C238.776 114.411 243.444 113.621 248.149 113.082C255.788 112.206 263.458 111.533 271.081 110.564C271.23 110.545 275.471 109.976 272.879 109.976C267.197 109.976 261.414 110.967 255.833 111.725C244.046 113.324 232.206 114.67 220.298 115.488" stroke="white" stroke-width="5" stroke-linecap="round"/>
<path d="M251.308 107.799C255.784 107.799 261.106 109.356 265.402 110.281C271.371 111.565 277.398 112.936 283.204 114.665C288.436 116.224 294.024 117.3 299.481 118.2C305.865 119.253 312.046 121.366 318.396 122.449C331.331 124.657 344.73 129.81 354.784 136.827C364.022 143.275 374.976 149.418 380.045 158.921C383.784 165.93 389.43 171.801 391.666 179.383C393.874 186.87 397.205 194.093 398.877 201.681C399.7 205.415 401.144 210.078 401.144 213.883C401.144 214.937 400.41 211.865 400.031 210.858C398.854 207.729 397.514 204.618 396.693 201.409C395.624 197.23 393.912 192.371 393.726 188.085C393.396 180.454 391.113 172.988 388.946 165.583C387.682 161.265 386.772 157.093 384.66 152.939C381.632 146.982 377.271 142.285 372.792 137.031C369.386 133.036 364.807 128.904 361.913 124.727C359.135 120.717 366.278 133.494 370.237 136.759C372.209 138.386 365.211 134.761 362.737 133.7C354.736 130.268 346.557 127.427 338.094 124.862C333.343 123.423 340.67 125.882 341.597 126.256C347.941 128.819 354.307 131.678 360.429 134.584C362.157 135.404 367.357 137.84 365.622 137.031C359.92 134.373 354.395 131.448 349.014 128.364C347.784 127.658 340.046 122.554 345.429 126.086C353.838 131.603 362.349 136.86 371.515 141.518C374.986 143.282 378.984 145.593 382.806 146.854C385.77 147.832 377.93 143.45 375.594 141.654C372.745 139.463 364.954 132.325 367.188 134.958C370.812 139.228 374.582 143.239 378.561 147.296C379.184 147.931 383.321 151.788 380.457 148.996C374.453 143.144 368.606 137.255 363.025 131.117C360.624 128.476 353.183 120.77 356.102 123.027C360.416 126.363 364.317 131.229 367.435 135.332C370.246 139.031 372.31 143.071 375.017 146.82C376.922 149.457 374.592 144.55 374.358 144.067C372.001 139.207 368.768 134.677 365.869 130.029C364.625 128.035 362.385 125.414 364.221 129.451C366.868 135.275 370.44 140.998 374.193 146.378C376.575 149.793 379.176 153.102 381.775 156.406C383.028 157.997 384.516 160.608 386.556 161.708C389.426 163.256 384.6 156.243 382.971 153.754C381.001 150.746 378.893 147.824 376.995 144.781C375.034 141.636 381.429 158.447 380.251 155.046C379.121 151.785 373.539 148.359 370.896 146.005C368.309 143.699 360.558 136.774 363.067 139.138C364.229 140.235 372.734 150.506 372.792 150.355C373.669 148.064 364.538 134.555 363.479 134.992C362.705 135.311 381.516 155.614 383.341 157.663C386.736 161.475 389.943 165.317 392.984 169.322C395.295 172.364 398.741 174.875 400.69 178.091C401.667 179.702 402.097 181.893 402.462 183.666C403.877 190.538 405.42 197.23 406.171 204.196C406.358 205.934 407.244 210.935 406.171 209.431C404.139 206.581 403.093 202.658 402.256 199.471C400.499 192.783 394.682 172.883 397.517 179.315C398.756 182.126 400.07 184.958 400.69 187.915C400.887 188.854 401.913 195.969 400.814 191.688C399.817 187.803 398.474 183.804 396.858 180.063C396.257 178.671 396.059 179.154 395.993 180.369C395.812 183.637 396.046 186.936 396.363 190.192C396.902 195.709 398.005 201.127 398.836 206.609C399.256 209.383 399.66 206.062 399.66 205.08C399.66 202.745 398.918 200.469 398.918 198.146C398.918 195.427 398.918 203.584 398.918 206.303C398.918 208.193 398.858 210.092 398.96 211.98C399.008 212.88 400.423 214.665 399.33 214.665C399.235 214.665 396.93 208.538 396.734 207.867C395.398 203.276 395.951 213.011 395.951 214.427C395.951 216.773 395.951 209.737 395.951 207.391C395.951 201.664 392.984 196.271 392.984 190.702C392.984 189.249 392.243 184.932 392.243 186.385C392.243 189.49 393.42 191.767 394.303 194.679C395.631 199.062 394.468 204.879 394.468 209.363C394.468 212.467 394.468 215.572 394.468 218.676C394.468 223.394 395.726 212.924 395.951 211.81" stroke="white" stroke-width="5" stroke-linecap="round"/>
<path d="M189.33 124.207C191.25 122.8 197.275 122.803 199.702 122.698C203.495 122.533 207.505 121.606 211.294 121.16C221.861 119.915 232.522 117.665 243.325 117.665C259.27 117.665 275.262 116.973 291.218 117.665C295.655 117.858 301.712 118.349 305.894 119.427C310.033 120.493 315.637 120.189 319.283 122.194" stroke="white" stroke-width="5" stroke-linecap="round"/>
<path d="M145.243 156.776C142.198 156.776 143.377 152.754 143.921 151.281C144.565 149.533 145.893 145.492 148.797 145.492" stroke="white" stroke-width="5" stroke-linecap="round"/>
<path d="M172.961 136.846C170.491 137.793 168.22 138.826 165.854 139.923C164.03 140.77 162.317 141.737 160.385 142.415C158.243 143.167 156.146 144.017 154.038 144.833C151.705 145.736 149.041 146.456 146.842 147.544" stroke="white" stroke-width="5" stroke-linecap="round"/>
<path d="M147.02 145.785C147.953 145.785 149.195 145.016 150.001 144.613C151.221 144.001 152.528 143.403 153.87 143C155.744 142.438 157.552 141.724 159.447 141.177C160.494 140.874 161.636 140.698 162.616 140.248C163.791 139.71 165.187 139.633 166.387 139.19C168.514 138.405 170.681 137.714 172.823 136.992C175.667 136.032 178.382 134.911 181.134 133.776C187.188 131.279 193.331 128.875 199.968 127.612" stroke="white" stroke-width="5" stroke-linecap="round"/>
<path d="M184.687 130.984C183.668 131.124 182.585 131.867 181.588 132.189C180.561 132.52 179.591 133.088 178.508 133.296C177.942 133.405 177.551 133.733 177.008 133.882C176.315 134.073 175.594 134.218 174.915 134.436C172.321 135.268 169.843 136.199 167.275 137.066C160.571 139.328 153.659 141.143 147.198 143.807C146.207 144.216 145.453 144.95 144.463 145.403C141.922 146.568 149.224 142.62 151.817 141.536C156.064 139.76 160.268 138.023 164.659 136.488C167.696 135.426 170.714 134.303 173.672 133.101C175.348 132.419 177.14 131.948 178.824 131.277C182.505 129.811 186.43 128.629 190.265 127.467C195.225 125.964 200.49 124.779 205.752 124.242C209.835 123.826 213.848 123.219 217.953 122.923C223.505 122.523 229.067 122.184 234.615 121.751C245.112 120.932 255.698 120.579 266.241 120.579" stroke="white" stroke-width="5" stroke-linecap="round"/>
<path d="M353.234 199.63C353.882 207.109 356.651 214.392 356.981 221.745C357.12 224.837 359.229 227.685 359.229 230.844C359.229 231.873 359.979 234.895 359.979 233.866C359.979 231.948 358.075 230.094 357.772 228.097C357.356 225.355 356.981 222.711 356.981 220.028C356.981 217.863 355.482 215.753 355.482 213.537C355.482 208.742 352.485 204.131 352.485 199.63" stroke="white" stroke-width="5" stroke-linecap="round"/>
<path d="M142.659 146.473C142.332 148.903 140.825 156.225 144.158 157.599" stroke="white" stroke-width="5" stroke-linecap="round"/>
<path d="M345.949 291.927C345.958 292.54 346.02 293.136 346.112 293.742C346.17 294.128 346.274 294.53 346.274 294.919C346.274 295.274 346.291 295.628 346.23 295.98C346.191 296.202 346.182 296.43 346.13 296.651C346.108 296.74 346.107 296.827 346.092 296.915C346.088 296.934 346.028 296.716 346.021 296.687" stroke="white" stroke-width="5" stroke-linecap="round"/>
<path d="M345.12 291.362C344.953 291.454 345.024 291.915 345.01 292.063C344.989 292.271 344.899 292.573 344.993 292.775C345.054 292.904 345.012 293.098 345.012 293.237C345.012 293.445 345.012 293.653 345.012 293.861C345.012 294.025 345.068 294.175 345.086 294.337C345.106 294.525 345.113 294.751 345.174 294.932C345.254 295.17 345.248 295.461 345.264 295.706C345.35 297.057 345.084 298.4 345.084 299.752" stroke="white" stroke-width="5" stroke-linecap="round"/>
<path d="M372.352 348.081C373.619 348.695 373.504 350.864 373.787 351.914C374.134 353.204 373.592 354.652 373.592 355.918C373.592 356.967 372.503 358.155 372.1 359.117C371.662 360.16 369.667 361.128 369.667 362.221" stroke="white" stroke-width="5" stroke-linecap="round"/>
<path d="M327.766 370.47C329.438 370.47 331.046 370.593 332.736 370.593C336.974 370.593 341.194 370.348 345.427 370.348C348.019 370.348 350.583 369.987 353.165 369.831C356.25 369.646 359.372 369.528 362.445 369.247C365.178 368.996 367.955 368.526 370.62 367.969C371.599 367.764 372.571 367.51 373.521 367.228C373.901 367.115 374.319 367.016 373.752 366.922" stroke="white" stroke-width="5" stroke-linecap="round"/>
<path d="M318.198 367.973C318.647 367.973 319.167 368.221 319.579 368.357C320.411 368.632 321.255 368.824 322.124 368.991C323.451 369.246 324.726 369.407 326.088 369.481C327.887 369.58 331.496 369.399 331.496 369.399" stroke="white" stroke-width="5" stroke-linecap="round"/>
<path d="M316.336 368.52C316.336 368.271 316.434 368.046 316.107 367.969C315.714 367.876 316.122 367.752 316.336 367.752C316.734 367.752 317.104 367.643 317.499 367.643C318.146 367.643 318.817 367.588 319.476 367.588C321.066 367.588 322.67 367.774 324.245 367.944C325.763 368.109 327.295 368.158 328.822 368.234C331.349 368.36 333.851 368.143 336.365 367.999C338.392 367.884 340.411 367.775 342.431 367.6C343.371 367.519 344.328 367.533 345.261 367.423" stroke="white" stroke-width="5" stroke-linecap="round"/>
<path d="M343.31 368.091C348.527 368.091 356.276 370.803 361.207 368.091" stroke="white" stroke-width="5" stroke-linecap="round"/>
<path d="M341.786 368.406C345.127 368.406 349.529 369 352.745 368.337C355.948 367.676 359.767 367.676 362.73 366.522C364.045 366.01 365.58 366.099 366.919 365.58C367.989 365.164 369.037 364.413 370.05 364.079C371.162 363.712 378.365 360.293 377.75 359.786C375.527 357.952 370.572 362.572 369.373 363.363C365.904 365.652 361.485 366.371 357.399 367.307C354.844 367.892 351.887 367.778 349.254 367.778C347.005 367.778 344.823 368.092 342.569 368.092C339.221 368.092 349.422 367.774 352.449 366.592C361.561 363.031 373.612 359.36 377.962 351.288C378.312 350.639 378.759 349.949 379.273 349.404C380.351 348.261 379.144 348.937 378.723 349.718C377.681 351.652 376.167 353.494 374.937 355.354C373.391 357.691 370.476 359.564 367.998 361.2C362.822 364.615 356.092 365.243 349.783 365.894" stroke="white" stroke-width="5" stroke-linecap="round"/>
<path d="M344.91 366.416C345.186 366.416 346.394 366.312 346.545 366.157C346.799 365.895 348.023 365.906 348.43 365.794" stroke="white" stroke-width="5" stroke-linecap="round"/>
<path d="M345.036 366.312C344.295 366.312 343.543 366.416 342.773 366.416C342.146 366.416 341.558 366.577 340.943 366.618C340.473 366.649 339.93 366.64 339.477 366.75C338.555 366.976 337.321 367.038 336.362 367.038C334.984 367.038 333.64 367.246 332.276 367.344C331.123 367.426 329.84 367.453 328.693 367.453C327.431 367.453 326.17 367.453 324.908 367.453C323.039 367.453 321.148 367.349 319.265 367.349" stroke="white" stroke-width="5" stroke-linecap="round"/>
<path d="M377.722 346.921C378.385 348.152 376.916 349.274 376.842 350.446C376.78 351.418 375.945 352.521 375.179 353.223C372.74 355.459 369.804 357.313 366.533 358.742C364.367 359.688 362.373 361.059 360.094 361.853C357.151 362.878 354.186 363.859 351.07 364.468C349.054 364.862 347.008 365.329 345.008 365.793C343.97 366.034 342.924 366.236 341.921 366.542C341.172 366.771 340.381 366.911 339.623 367.141C338.414 367.509 337.18 367.583 335.957 367.867C335.112 368.063 334.259 368.077 333.408 368.235C332.768 368.355 332.118 368.489 331.459 368.489" stroke="white" stroke-width="5" stroke-linecap="round"/>
<path d="M137.057 120.225C132.7 122.271 126.42 124.12 123.869 128.584C121.62 132.52 126.026 134.129 127.971 136.787C131.236 141.249 123.027 137.835 121.845 137.047C118.445 134.78 115.149 132.15 111.85 129.726C110.249 128.55 109.573 127.769 111.669 129.778C116.745 134.645 120.523 140.352 125.167 145.561C129.513 150.436 135.215 153.676 140.951 156.62C143.98 158.175 147.039 159.674 150.036 161.293C150.989 161.807 150.896 161.789 149.984 161.916C146.825 162.354 143.593 162.75 140.405 162.409C135.607 161.895 131.975 158.803 128.464 155.737C121.25 149.437 117.436 140.988 112.421 133.049C111.666 131.853 111.06 130.679 110.163 129.57C109.558 128.822 104.347 122.448 106.892 126.455C114.501 138.435 122.383 151.334 135.188 158.074" stroke="white" stroke-width="10" stroke-linecap="round"/>
<path d="M105.339 122.773C112.844 120.772 119.928 117.692 127.309 115.313C137.185 112.131 147.583 111.123 157.491 107.99C167.85 104.715 178.009 102.201 188.7 100.12C205.752 96.7994 222.82 92.7414 240.167 91.2909C278.686 88.0701 318.156 100.439 350.835 120.446C366.557 130.072 382.157 140.545 390.53 157.473C396.629 169.803 401.57 183.682 402.918 197.442C403.847 206.934 400.678 213.037 395.731 220.711C391.353 227.504 388.56 234.624 387.861 242.749C386.646 256.865 392.31 270.779 390.941 284.703C389.434 300.03 375.268 310.675 374.104 326.178C372.813 343.379 380.413 367.846 357.61 373.402C348.442 375.635 338.228 374.86 328.865 375.318C322.111 375.648 315.37 375.934 308.607 375.934" stroke="white" stroke-width="10" stroke-linecap="round"/>
<path d="M384.986 314.338C378.778 323.96 376.04 335.479 377.082 346.847C377.671 353.277 380.723 360.686 375.952 366.284C370.071 373.186 359.02 372.648 350.903 373.231C335.764 374.318 320.691 375.861 305.527 376.55" stroke="white" stroke-width="10" stroke-linecap="round"/>
<path d="M106.309 124.456C103.404 124.093 106.935 114.678 107.87 113.414C111.864 108.01 118.609 105.413 124.814 103.514C140.051 98.8493 156.153 97.4568 171.876 95.3653C211.606 90.0805 254.032 82.6222 293.569 92.3953C310.864 96.6707 329.125 101.258 345.162 109.187C351.006 112.077 357.185 115.631 361.725 120.42C365.898 124.821 368.331 130.861 371.092 136.145C371.62 137.155 374.82 143.296 375.928 145.017C377.135 146.891 379.164 146.623 381.221 146.997C385.805 147.831 393.442 150.994 389.217 144.103C385.595 138.196 382 132.026 377.603 126.664C365.791 112.259 346.15 106.916 328.485 104.237C293.372 98.912 256.968 99.0267 221.528 99.0968C205.29 99.1289 188.641 98.8643 172.6 101.838C159.327 104.299 146.956 109.596 134.028 113.261C130.776 114.183 127.497 115.043 124.166 115.622C121.435 116.096 116.174 117.429 115.904 114.67C115.567 111.229 124.293 107.79 126.413 106.941C129.304 105.782 132.228 105.676 128.736 108.768C126.986 110.317 121.064 112.476 123.291 113.185C126.051 114.064 139.966 106.706 126.337 111.472C124.154 112.235 113.554 117.919 111.335 113.261C109.199 108.78 113.556 102.064 116.323 99.211C128.674 86.474 149.5 83.5262 166.165 81.5816C196.073 78.0916 226.965 77.8577 256.939 80.5155C280.759 82.6276 304.929 86.8683 327.342 95.4034C344.59 101.971 359.497 112.708 372.501 125.712C383.338 136.55 390.945 153.287 394.814 167.863C395.897 171.942 398.015 184.317 396.375 180.428C393.957 174.694 393.277 167.603 391.92 161.58C391.148 158.155 387.636 144.447 393.938 154.841C402.871 169.574 400.474 188.924 398.05 205.102C395.923 219.3 392.623 233.214 391.159 247.519C390.903 250.014 390.264 257.489 390.207 254.982C390.051 248.154 392.037 241.846 391.73 234.801C389.736 189.075 358.821 152.418 321.364 128.949C293.119 111.251 260.115 97.9703 227.544 90.8723C211.709 87.4213 195.916 87.6243 179.872 89.0446C166.418 90.2357 153.029 92.4011 140.12 96.4314C139.972 96.4778 128.316 98.8702 132.81 102.295C136.904 105.416 142.98 107.861 148.002 108.768C153.865 109.827 158.847 108.036 164.566 107.321" stroke="white" stroke-width="10" stroke-linecap="round"/>
<path d="M112.942 90.2975C112.476 92.1212 110.86 95.4167 112.669 95.9374C113.386 96.1439 114.144 95.201 114.852 95.4371C117.053 96.1709 115.312 99.8987 114.988 100.531C113.2 104.023 115.726 94.4223 116.034 95.3006C116.128 95.5663 115.186 110.907 118.036 103.942C121.191 96.2296 117.508 101.089 115.307 102.396C109.871 105.623 111.301 106.219 107.893 114.221C107.691 114.697 101.997 133.467 96.8408 125.865C95.6464 124.104 94.3399 118.913 96.386 119.497C98.7973 120.186 98.3807 124.137 98.8875 126.593C99.4189 129.168 99.9344 136.701 100.843 134.234C102.979 128.438 107.862 140.855 108.575 138.418C111.911 127.022 116.89 116.931 122.948 106.671C125.452 102.431 128.051 96.0225 132.954 93.8907C142.468 89.7541 155.265 89.061 165.338 87.8415C193.241 84.4632 222.202 82.4578 250.299 82.2016C277.024 81.9579 303.636 89.3817 328.939 97.3474C350.507 104.138 373.13 111.027 387.566 129.549C395.264 139.426 399.941 150.798 405.486 161.887C408.666 168.247 413.166 173.525 414.673 180.717C417.151 192.542 413.462 205.877 413.582 217.922C413.774 237.238 407.126 179.827 404.394 160.705" stroke="#4CCE8E" stroke-width="10" stroke-linecap="round"/>
<path d="M154.695 79.6547C143.014 80.4512 131.249 81.6438 119.946 84.8397C117.953 85.4034 115.211 86.253 113.306 87.5232C112.575 88.0105 114.079 87.8539 114.215 88.2055C115.583 91.7376 111.351 101.532 110.395 105.08C109.416 108.71 107.974 111.609 105.119 114.131C104.266 114.883 100.369 117.593 102.572 113.767C106.879 106.286 114.273 97.1192 122.22 93.2995C128.482 90.2897 136.88 89.9352 142.687 86.3862C144.551 85.2471 148.715 84.5161 151.329 84.0211C163.044 81.8023 174.412 78.7937 186.351 78.0628C210.822 76.5646 236.101 76.2298 260.578 78.1993C283.436 80.0384 308.002 84.1391 329.257 92.9811C341.405 98.0346 353.866 101.911 366.462 105.671C368.025 106.137 380.275 111.082 370.055 105.398C347.913 93.0844 324.327 81.8918 299.602 75.8342C264.728 67.2899 228.156 71.8538 194.356 82.793C173.201 89.6395 153.276 101.371 144.052 122.499C137.106 138.409 139.114 155.665 153.694 166.163C158.874 169.892 142.008 160.298 137.775 155.52C133.074 150.213 130.393 143.425 125.722 138.191C121.138 133.054 123.462 144.889 123.494 145.059C124.3 149.433 125.306 151.819 126.859 155.884C127.331 157.117 127.944 158.3 128.315 159.568C128.754 161.07 129.171 163.401 126.814 160.841C122.032 155.647 119.699 148.758 115.671 143.057C113.511 140.001 118.409 150.035 120.082 153.382C120.529 154.276 121.242 155.157 121.22 156.156C121.209 156.619 120.353 155.767 120.037 155.429C117.365 152.566 126.86 159.285 130.134 161.432C133.127 163.396 136.458 166.017 140.277 165.89C142.463 165.817 137.773 162.287 136.775 160.341C133.094 153.168 132.27 146.67 132.59 138.418C132.811 132.734 133.694 127.075 134.819 121.499C135.852 116.375 137.522 111.398 139.049 106.399C139.57 104.691 142.024 99.9624 140.959 101.395C132.752 112.444 129.066 128.804 116.762 136.781C109.531 141.47 113.653 121.495 115.125 119.361C116.352 117.582 117.389 123.047 118.627 124.819C122.894 130.926 124.48 122.037 124.221 119.225C123.797 114.618 121.071 111.218 117.808 115.677C117.499 116.1 116.923 117.566 117.217 117.132C119.195 114.213 120.265 110.757 122.129 107.763C123.491 105.575 126.604 101.196 128.315 103.124C129.257 104.185 128.765 106.331 129.998 107.035C134.875 109.822 142.524 99.7254 143.233 98.9848C146.009 96.0849 148.551 92.9588 150.965 89.7519C151.48 89.068 152.701 86.9487 151.966 87.3868C149.901 88.6166 148.437 90.6494 146.69 92.2989C143.19 95.6032 132.352 105.144 135.819 101.805C139.918 97.8582 144.096 97.6658 149.419 97.6658C158.574 97.6658 146.921 100.022 144.052 100.941" stroke="#4CCE8E" stroke-width="10" stroke-linecap="round"/>
<path d="M99.6742 109.835C120.979 102.226 143.378 101.515 165.864 101.261C213.734 100.72 261.281 103.588 308.19 113.608C329.205 118.096 349.883 123.182 369.647 131.784C382.903 137.553 394.9 145.374 407.715 151.95C411.141 153.708 418.892 157.793 412.447 151.95C407.491 147.455 402.648 142.852 397.22 138.917C384.748 129.875 370.547 124.636 356.203 119.301C341.144 113.699 325.731 107.432 310.385 102.702C284.588 94.7505 256.185 91.4303 229.31 90.3553C216.874 89.8578 204.197 89.6601 191.791 90.8354C185.501 91.4314 166.991 92.049 173.066 93.7848C178.682 95.3893 187.868 93.7848 193.506 93.7848C204.069 93.7848 214.587 93.6774 225.126 94.4707C237.255 95.3836 247.813 99.4816 259.49 102.564C273.31 106.213 287.373 106.805 301.536 108.052C316.55 109.373 331.562 111.281 346.463 113.539C350.505 114.151 367.889 118.894 353.391 114.911C334.432 109.702 315.943 103.373 296.666 99.2721C278.173 95.3373 259.459 92.3598 240.834 89.1207C237.297 88.5056 258.303 92.524 258.736 92.6188C262.197 93.3775 270.034 95.0775 274.1 96.4599C277.612 97.6541 273.315 97.3768 272.797 97.2144C270.335 96.442 258.202 86.0292 258.324 85.9655C262.087 84.0025 266.797 86.5116 271.014 86.9944C275.136 87.4663 287.494 88.9233 283.36 88.5719C245.879 85.3861 209.189 76.1162 171.763 72.7961C155.35 71.3401 150.115 74.8813 142.886 88.4348C141.08 91.8222 138.728 96.6579 136.987 100.095C134.928 104.164 126.735 114.344 130.814 112.304C135.227 110.098 136.422 104.185 139.182 100.095C146.446 89.3326 153.673 78.4312 161.954 68.4063C166.858 62.4709 152.689 80.7601 148.922 87.4745C147.544 89.9319 153.158 83.7564 155.233 81.8501C157.936 79.3661 166.411 71.4657 161.2 81.5071C157.705 88.241 153.358 95.3353 148.648 101.33C144.992 105.983 137.847 118.842 131.912 120.741C130.026 121.344 132.245 116.621 133.352 114.979C139.561 105.773 148.14 100.286 158.662 96.94C159.154 96.7835 189.359 90.176 181.091 94.5393C171.226 99.7458 161.866 107.188 154.547 115.528C150.404 120.249 146.715 125.289 142.818 130.206C139.081 134.922 134.868 142.867 130.128 146.462C129.062 147.271 129.482 143.819 129.58 142.484C130.147 134.745 131.253 126.616 135.067 119.712C141.947 107.258 157.193 101.04 169.774 96.1169C178.113 92.8539 186.866 92.0399 195.77 92.6874C203.824 93.2731 194.471 98.8341 191.86 100.644C183.263 106.603 172.76 109.613 163.189 113.608C152.706 117.983 142.522 122.907 132.186 127.531C126.573 130.043 132.621 115.421 132.735 115.185C144.163 91.4236 172.804 86.6734 196.318 84.045C241.902 78.9495 295.509 78.2318 337.204 100.507C351.13 107.947 364.546 119.128 373.694 132.196C380.619 142.089 388.787 151.234 395.368 161.347C402.949 172.994 405.756 186.287 406.823 199.963C407.547 209.245 409.09 218.355 410.047 227.605C410.739 234.299 409.268 242.907 411.35 249.348C413.606 256.329 426.312 268.686 433.779 269.308C445.148 270.256 448.88 239.781 449.486 233.298C453.113 194.535 447.628 154.039 440.432 116.008" stroke="#4CCE8E" stroke-width="10" stroke-linecap="round"/>
<path d="M379.653 105.16C353.659 101.379 328.451 95.4379 302.788 89.9966C298.851 89.1618 294.905 88.3276 290.915 87.8032C289.323 87.594 287.463 86.9566 286.099 87.8032C285.753 88.0178 296.804 92.8178 297.59 93.4775C299.338 94.9432 293.052 94.0948 290.772 94.0497C289.437 94.0233 287.733 93.0812 286.766 94.002C286.002 94.7299 288.751 94.7277 289.77 95.0034C292.632 95.7774 295.552 96.3281 298.401 97.1491C301.488 98.039 310.036 100.532 306.984 101.536C304.413 102.382 301.584 102.036 298.878 102.013C290.493 101.941 275.504 100.665 267.55 100.105C252.277 99.0306 237.118 97.8179 221.869 99.724C207.093 101.571 192.761 105.223 178.43 109.165C165.686 112.671 151.74 118.14 138.376 118.654C133.148 118.855 141.304 101.813 141.904 100.01" stroke="#4CCE8E" stroke-width="10" stroke-linecap="round"/>
<path d="M206.776 110.098C209.765 109.824 212.494 106.02 215.5 106C223.374 105.948 234.888 104.223 242.5 106C265.37 102.174 285.429 107.672 307.5 112C326.5 115.726 350.448 123.256 365.5 136.5C368.768 137.731 369.083 142.748 372.295 144.12C373.309 144.553 372.958 144.375 372.499 144.069" stroke="white" stroke-width="10" stroke-linecap="round"/>
<path d="M338.768 132.7C329.854 128.458 321.063 123.551 311.748 120.245C295.707 114.553 278.948 114.62 262.266 112.245C258.191 111.664 254.079 111.084 250.023 110.366C246.337 109.714 257.42 111.575 261.042 112.519C281.866 117.947 302.339 124.794 322.641 131.898C332.128 135.218 341.54 138.56 350.548 142.96" stroke="white" stroke-width="10" stroke-linecap="round"/>
<path d="M218.696 106.102C201.43 106.102 183.545 107.876 167.335 114.145C162.817 115.892 158.566 118.13 154.606 120.921C151.775 122.917 148.893 125.062 148.041 128.605C147.223 132.009 147.64 135.885 147.64 139.35C147.64 142.871 147.481 146.465 147.914 149.968C148.772 156.893 154.882 163.98 162.459 162.085C164.737 161.516 166.543 160.28 168.37 158.834C174.337 154.112 180.051 149.468 186.82 145.873C204.181 136.651 222.77 132.587 241.874 128.901" stroke="white" stroke-width="10" stroke-linecap="round"/>
<path d="M357.159 130.874C372.525 134.715 380.236 151.599 387.169 164.147C395.819 179.804 398.094 195.661 399.017 213.454C399.891 230.316 395.912 246.686 392.277 263.045" stroke="white" stroke-width="10" stroke-linecap="round"/>
</svg>
