<svg width="542" height="435" viewBox="0 0 542 435" fill="none" xmlns="http://www.w3.org/2000/svg">
<rect width="542" height="435" fill="white"/>
<path d="M194.686 96.8797C174.969 104.902 164.924 136.195 187.649 154.251C217.23 139.296 215.665 118.796 194.686 96.8797Z" fill="#4CCE8E" stroke="#4CCE8E"/>
<path d="M103.028 212.108C98.5201 225.76 124.002 245.948 157.073 243.491C160.855 221.59 138.916 212.393 103.028 212.108Z" fill="#4CCE8E" stroke="#4CCE8E"/>
<path d="M165.414 260.155C149.602 253.53 118.754 268.363 114.105 294.269C140.272 302.254 156.725 287.583 165.414 260.155Z" fill="#4CCE8E" stroke="#4CCE8E"/>
<path d="M332.167 164.516C307.267 160.256 268.337 179.742 270.698 206.383C310.87 210.45 329.283 193.287 332.167 164.516Z" fill="#4CCE8E" stroke="#4CCE8E"/>
<path d="M83.2232 171.135C79.673 185.166 106.274 203.657 138.875 198.869C141.153 176.602 118.8 168.903 83.2232 171.135Z" fill="#4CCE8E" stroke="#4CCE8E"/>
<path d="M235.493 136.638C214.305 142.866 205.802 177.918 232.523 202.733C264.065 189.969 260.603 165.696 235.493 136.638Z" fill="#4CCE8E" stroke="#4CCE8E"/>
<path d="M203.168 274.341C183.041 277.627 163.174 302.492 176.724 321.977C207.95 314.559 213.821 296.803 203.168 274.341Z" fill="#4CCE8E" stroke="#4CCE8E"/>
<path d="M143.295 155.948C136.439 173.114 162.294 201.043 199.643 200.509C206.779 172.698 183.435 159.156 143.295 155.948Z" fill="#4CCE8E" stroke="#4CCE8E"/>
<path d="M74.9622 117.795C72.7998 134.505 108.048 154.377 147.016 146.514C146.36 120.225 117.949 112.728 74.9622 117.795Z" fill="#4CCE8E" stroke="#4CCE8E"/>
<path d="M116.659 54.6247C100.912 65.6231 110.184 99.2816 145.687 114.759C167.455 95.2478 152.77 74.3246 116.659 54.6247Z" fill="#4CCE8E" stroke="#4CCE8E"/>
<path d="M270.453 380.099L270.453 221.958" stroke="#4CCE8E" stroke-width="40"/>
<path d="M258.275 380.221L257.512 282.663" stroke="#4CCE8E" stroke-width="30"/>
<rect width="31.2082" height="67.1624" rx="10" transform="matrix(0.999868 -0.0162483 0.0261849 0.999657 394.534 209.124)" fill="#4CCE8E"/>
<rect width="24.7401" height="63.2567" rx="10" transform="matrix(0.999996 -0.00297248 0.00479126 0.999988 340.716 262.016)" fill="#4CCE8E"/>
<rect width="48.6916" height="63.2567" rx="10" transform="matrix(0.999996 -0.00297248 0.00479126 0.999988 242.281 329.197)" fill="#4CCE8E"/>
<path d="M415.234 120.139C415.153 113.307 420.626 107.729 427.457 107.679V107.679C434.289 107.629 439.892 113.126 439.973 119.958L440.347 151.713C440.428 158.544 434.955 164.123 428.123 164.173V164.173C421.292 164.223 415.689 158.725 415.608 151.894L415.234 120.139Z" fill="#4CCE8E"/>
<rect width="19.4867" height="66.1668" rx="9.74337" transform="matrix(0.00710802 0.999975 -0.99999 0.00440982 410.078 261.744)" fill="#4CCE8E"/>
<rect width="43.7321" height="54.5778" rx="10" transform="matrix(-0.999977 -0.0068271 0.0106608 -0.999943 291.234 269.357)" fill="#4CCE8E"/>
<rect width="36.7426" height="82.439" rx="10" transform="matrix(-0.74905 0.662514 -0.792325 -0.6101 282.664 269.529)" fill="#4CCE8E"/>
<path d="M418.105 162.606C415.177 156.622 417.972 150.202 424.347 148.267V148.267C430.721 146.332 438.263 149.614 441.191 155.599L463.808 201.825C466.736 207.809 463.941 214.229 457.567 216.164V216.164C451.192 218.099 443.651 214.817 440.723 208.832L418.105 162.606Z" fill="#4CCE8E"/>
<rect width="19.4866" height="58.8567" rx="9.74329" transform="matrix(0.00291767 -0.999996 0.999999 0.0018101 394.534 218.51)" fill="#4CCE8E"/>
<path d="M409.588 265.049C410.213 265.172 410.338 270.545 410.338 271.413C410.338 272.509 410.522 273.686 410.046 274.726C409.764 275.344 408.064 275.887 407.339 276.268" stroke="#4CCE8E" stroke-width="30" stroke-linecap="round"/>
<path d="M420.834 216.334C422.528 216.334 426.762 215.759 428.039 216.564C428.295 216.725 432.186 216.643 429.664 217.154C426.888 217.716 424.442 217.81 421.584 217.81" stroke="#4CCE8E" stroke-width="30" stroke-linecap="round"/>
<path d="M413.712 218.4C415.769 218.238 417.518 217.809 419.626 217.809C421.028 217.809 422.43 217.809 423.832 217.809C425.207 217.809 426.581 217.809 427.956 217.809C429.323 217.809 432.543 217.606 433.766 217.071C435.057 216.506 436.851 216.683 438.285 216.038C440.039 215.248 440.305 215.003 440.721 213.528C441.56 210.557 440.44 207.566 437.702 205.409" stroke="#4CCE8E" stroke-width="30" stroke-linecap="round"/>
<path d="M433.526 217.074C435.832 217.144 437.892 217.726 440.132 218.047C440.881 218.154 441.924 218.452 442.645 218.452C443.995 218.452 442.908 219.042 442.145 219.042C440.514 219.042 438.94 219.436 437.273 219.436C434.833 219.436 432.436 219.829 430.028 219.829" stroke="#4CCE8E" stroke-width="10" stroke-linecap="round"/>
<path d="M423.782 221.795C428.364 221.795 432.778 221.7 437.273 221.194C440.354 220.847 443.281 219.961 446.295 219.434C448.018 219.132 451.264 218.43 451.264 216.679" stroke="#4CCE8E" stroke-width="10" stroke-linecap="round"/>
<path d="M407.151 279.083C408.21 279.083 409.269 278.92 410.333 278.92C412.135 278.92 414.039 278.898 415.62 278.136C415.911 277.997 416.281 277.973 416.581 277.835C416.994 277.645 417.498 277.542 417.939 277.389C418.492 277.196 419.075 277.061 419.63 276.871C420.224 276.667 420.794 276.409 421.405 276.235C421.711 276.148 422.63 275.906 422.307 275.94C421.71 276.003 421.125 276.147 420.544 276.268C418.699 276.653 416.818 276.897 414.947 277.184C413.966 277.335 413 277.523 412.024 277.69C411.363 277.804 412.315 277.455 412.457 277.389C413.902 276.719 415.488 276.351 417.066 275.937" stroke="#4CCE8E" stroke-width="10" stroke-linecap="round"/>
<path d="M421.713 119.452C421.713 114.324 419.332 111.684 418.247 106.985C417.719 104.698 416.249 96.7218 414.061 95.3434C412.735 94.5076 412.83 91.1039 412.034 89.78C410.321 86.9323 407.825 84.0512 405.69 81.4348C401.728 76.5808 396.936 72.1189 391.694 67.9898C380.434 59.1211 368.66 54.386 353.434 50.1147C342.406 47.0209 328.505 46.1963 316.875 44.8603C305.821 43.5907 294.226 43.418 283.062 43.418C268.278 43.418 255.09 44.2407 241.075 48.0542C233.424 50.1359 227.725 54.3123 220.473 56.8114C217.451 57.8527 216.126 59.9399 213.344 61.0355" stroke="#4CCE8E" stroke-width="40" stroke-linecap="round"/>
<path d="M432.05 114.233C432.05 113.191 431.57 112.258 431.418 111.235C431.239 110.04 431.033 108.685 430.68 107.517C430.326 106.346 429.655 105.318 429.146 104.233C428.05 101.904 426.702 99.5891 425.62 97.2227C424.539 94.8569 423.57 92.4057 422.142 90.1567C421.244 88.7413 420.961 87.1663 420.198 85.7105C419.439 84.2629 418.635 82.7985 417.973 81.3196C416.076 77.0861 413.023 73.0408 409.517 69.503C407.977 67.9489 406.155 66.6059 404.388 65.2136C402.381 63.6331 400.539 61.9237 398.532 60.3431C397.071 59.1924 395.781 57.9367 394.316 56.7825C393.72 56.3136 393.026 55.4492 392.208 55.2881" stroke="#4CCE8E" stroke-width="40" stroke-linecap="round"/>
<path d="M388.203 57.1975C386.412 57.1975 384.875 55.659 383.461 54.9426C382.044 54.2254 380.732 53.3409 379.239 52.6991C377.605 51.9971 376.372 51.0183 374.612 50.4329C370.367 49.021 366.208 47.2621 361.802 46.1053C352.097 43.5574 342.134 41.3959 331.988 40.2859C321.838 39.1756 311.602 38.5526 301.423 37.6325C296.623 37.1986 291.803 37.3136 286.979 37.3136C282.526 37.3136 278.127 37.6848 273.691 37.7236C268.209 37.7716 262.465 38.757 257.064 39.466C252.65 40.0454 248.225 40.6407 243.878 41.4589C235.266 43.0796 226.889 46.3055 219.038 49.4535C216.446 50.4928 213.785 51.6923 211.491 53.0977C210.459 53.7296 209.217 54.9158 208.107 55.3526" stroke="#4CCE8E" stroke-width="40" stroke-linecap="round"/>
<path d="M388.724 53.9193C387.774 53.8258 386.71 52.447 385.861 52.0288C385.108 51.6581 384.396 50.8728 383.576 50.4345C382.673 49.9517 381.684 49.5917 380.786 49.1021C378.391 47.796 375.394 47.2473 372.978 46.0158C369.941 44.4679 366.714 43.3495 363.479 42.0755C359.304 40.4315 354.777 39.5945 350.264 38.7501C344.25 37.6252 338.076 36.9589 332.017 35.9828C321.477 34.2847 310.773 34.0148 300.121 33.056C295.954 32.6808 291.673 32.9493 287.485 32.646C283.302 32.3431 278.866 32.5188 274.703 32.8168C270.696 33.1038 266.587 33.7417 262.732 34.5592C257.209 35.7303 251.838 37.456 246.307 38.5451C241.127 39.5651 235.907 41.5981 231.125 43.4193C226.638 45.1283 221.683 46.0947 217.361 48.0657C214.559 49.3433 211.066 50.0001 208.498 51.5733C207.301 52.3062 205.149 53.0445 204.464 54.1243" stroke="#4CCE8E" stroke-width="40" stroke-linecap="round"/>
<path d="M202.642 57.6074C202.763 58.4636 204.343 59.407 204.854 60.1812C205.336 60.9114 206.094 62.3222 207.326 62.3222" stroke="#4CCE8E" stroke-width="40" stroke-linecap="round"/>
<path d="M403.412 92.3027C403.462 92.4219 403.878 92.6347 404.017 92.7511C404.153 92.8639 404.242 92.9564 404.388 93.0713C404.633 93.2642 404.992 93.597 405.138 93.8399C405.618 94.6387 406.461 95.5003 406.588 96.4019C406.651 96.8524 406.981 97.2721 407.071 97.7185C407.169 98.1981 407.306 98.6833 407.392 99.156C407.469 99.5823 407.567 100.005 407.645 100.437C407.7 100.739 407.884 101.03 407.884 101.334" stroke="white" stroke-width="5" stroke-linecap="round"/>
<path d="M404.144 92.4316C404.435 92.7183 404.509 93.0719 404.713 93.3924" stroke="white" stroke-width="5" stroke-linecap="round"/>
<path d="M413.282 118.692C413.282 119.05 413.457 119.387 413.474 119.734C413.484 119.95 413.532 120.307 413.644 120.506C413.77 120.729 413.665 121.04 413.783 121.262C413.972 121.615 413.991 122.031 414.146 122.396" stroke="white" stroke-width="5" stroke-linecap="round"/>
<path d="M448.461 218.765C447.837 218.765 449.695 218.564 450.255 218.349C450.877 218.111 451.531 217.944 452.156 217.702C453.023 217.367 453.878 217.034 454.748 216.704C455.305 216.493 456.152 216.328 456.613 216.002C457.119 215.645 457.833 215.351 458.408 215.06C458.849 214.837 459.249 214.594 459.675 214.358C460.587 213.852 461.197 213.223 461.974 212.611" stroke="#4CCE8E" stroke-width="5" stroke-linecap="round"/>
<path d="M449.039 218.979C449.614 218.979 450.104 218.615 450.691 218.549C451.037 218.51 451.475 218.364 451.792 218.24C452.123 218.109 452.683 217.959 453.03 217.899C453.542 217.809 454.272 217.468 454.676 217.208C455.192 216.876 455.862 216.712 456.359 216.321C456.746 216.015 457.357 215.667 457.847 215.474C459.192 214.944 460.108 214.163 461.15 213.342" stroke="#4CCE8E" stroke-width="5" stroke-linecap="round"/>
<path d="M450.766 218.956C451.034 218.956 451.25 218.827 451.49 218.785C451.769 218.736 451.98 218.456 452.241 218.365C452.444 218.294 452.69 218.067 452.858 217.942C453.006 217.832 453.217 217.78 453.383 217.689C453.556 217.592 453.668 217.406 453.877 217.351" stroke="#4CCE8E" stroke-width="5" stroke-linecap="round"/>
<path d="M448.783 219.661C448.918 219.655 449.041 219.589 449.185 219.582C449.341 219.575 449.481 219.518 449.627 219.483C449.746 219.454 449.874 219.432 449.988 219.392C450.085 219.358 450.279 219.329 450.355 219.279C450.418 219.237 450.56 219.235 450.641 219.2C450.745 219.154 450.854 219.121 450.959 219.068C451.208 218.942 451.471 218.851 451.746 218.765C451.97 218.694 452.178 218.559 452.399 218.501" stroke="#4CCE8E" stroke-width="5" stroke-linecap="round"/>
<path d="M452.715 218.096C452.8 218.096 452.925 217.992 452.969 217.939" stroke="#4CCE8E" stroke-width="5" stroke-linecap="round"/>
<path d="M453.056 218.295C453.202 218.234 453.316 218.084 453.374 217.965C453.407 217.898 453.49 217.851 453.54 217.792C453.574 217.752 453.629 217.726 453.664 217.682C453.687 217.654 453.681 217.619 453.71 217.592C453.836 217.476 453.957 217.326 454.107 217.222C454.249 217.125 454.409 217.026 454.56 216.937C454.635 216.892 454.784 216.848 454.815 216.775" stroke="#4CCE8E" stroke-width="5" stroke-linecap="round"/>
<path d="M453.85 218.007C453.967 217.924 454.126 217.883 454.232 217.783C454.368 217.655 454.564 217.561 454.736 217.466C454.889 217.381 455.04 217.318 455.171 217.215C455.274 217.134 455.383 217.058 455.496 216.984C456.099 216.589 456.784 216.3 457.341 215.861" stroke="#4CCE8E" stroke-width="5" stroke-linecap="round"/>
<path d="M405.66 279.878C406.523 279.773 407.319 279.611 408.205 279.611C408.864 279.611 409.731 279.642 410.318 279.411" stroke="#4CCE8E" stroke-width="5" stroke-linecap="round"/>
<path d="M407.354 280.146C407.805 280.146 408.257 280.146 408.708 280.146C409.076 280.146 409.782 280.121 410.106 279.979C410.509 279.803 411.131 279.836 411.592 279.709C412.574 279.438 413.84 279.408 414.721 278.945" stroke="#4CCE8E" stroke-width="5" stroke-linecap="round"/>
<path d="M422.68 276.742C422.715 276.633 423.024 276.627 423.146 276.605C423.345 276.57 423.535 276.36 423.654 276.246C423.925 275.985 424.16 275.706 424.421 275.442C424.668 275.191 424.931 274.969 425.221 274.741C425.53 274.498 425.775 274.209 426.133 274.008C426.188 273.977 426.423 273.808 426.321 273.808" stroke="#4CCE8E" stroke-width="5" stroke-linecap="round"/>
<path d="M406.846 280.411C407.907 280.411 408.834 280.191 409.852 279.944C411.33 279.586 412.798 279.106 414.297 278.811" stroke="#4CCE8E" stroke-width="5" stroke-linecap="round"/>
<path d="M407.128 280.305C407.55 280.305 407.946 280.274 408.379 280.274C408.657 280.274 408.935 280.274 409.213 280.274C409.514 280.274 409.787 280.202 410.086 280.181C411.692 280.071 413.234 279.515 414.753 279.116" stroke="#4CCE8E" stroke-width="5" stroke-linecap="round"/>
<path d="M426.309 273.58C426.635 273.58 426.308 274.164 426.238 274.268C426.083 274.5 425.946 274.71 425.693 274.909C425.331 275.195 424.972 275.482 424.502 275.66C424.145 275.796 423.813 275.972 423.452 276.096C423.216 276.178 422.949 276.252 422.735 276.364" stroke="#4CCE8E" stroke-width="5" stroke-linecap="round"/>
<path d="M425.515 275.113C425.425 275.326 425.083 275.485 424.919 275.669C424.834 275.764 424.706 275.844 424.601 275.927C424.398 276.087 424.177 276.238 423.966 276.396C423.798 276.521 423.585 276.581 423.392 276.677C423.171 276.788 422.872 276.927 422.616 276.983C422.181 277.078 421.745 277.202 421.323 277.322C420.24 277.629 419.1 277.845 418.051 278.224C417.477 278.431 416.811 278.481 416.222 278.662C415.873 278.769 415.413 278.961 415.031 278.961" stroke="#4CCE8E" stroke-width="5" stroke-linecap="round"/>
<path d="M426.483 272.677C426.53 272.696 426.54 273.191 426.54 273.281C426.54 273.433 426.54 273.585 426.54 273.736" stroke="#4CCE8E" stroke-width="5" stroke-linecap="round"/>
<path d="M400.067 80.998C401.164 82.4125 400.816 84.1603 401.503 85.6481C401.895 86.4971 402.13 87.3697 402.631 88.1885C403.576 89.7346 404.927 91.0762 405.811 92.632C408.102 96.6652 409.23 101.251 410.324 105.559C411.317 109.469 412.689 113.209 414.21 117.004C415.39 119.946 416.297 123.181 416.729 126.241C417.139 129.144 417.73 132.024 418.233 134.913C418.531 136.618 418.513 138.46 419.043 140.129C419.254 140.796 419.35 141.389 419.35 142.077" stroke="#4CCE8E" stroke-width="5" stroke-linecap="round"/>
<path d="M414.017 115.899C414.173 119.723 415.371 123.432 415.852 127.219C416.125 129.374 416.442 131.553 416.889 133.709C417.502 136.666 417.405 139.825 418.325 142.722" stroke="#4CCE8E" stroke-width="5" stroke-linecap="round"/>
<path d="M391.895 82.667C403.064 87.8955 406.341 100.486 407.364 110.193C407.589 112.328 408.271 114.268 408.75 116.341C409.174 118.176 410.994 119.22 411.409 120.759C411.718 121.905 412.578 122.907 413.132 124.095C413.791 125.508 413.469 127.328 413.469 128.822" stroke="#4CCE8E" stroke-width="5" stroke-linecap="round"/>
<path d="M417.514 136.052C417.139 138.106 416.997 140.102 416.84 142.169" stroke="#4CCE8E" stroke-width="5" stroke-linecap="round"/>
<path d="M416.84 135.494V153.289" stroke="#4CCE8E" stroke-width="5" stroke-linecap="round"/>
<path d="M415.492 138.275V157.182" stroke="#4CCE8E" stroke-width="5" stroke-linecap="round"/>
<path d="M415.492 141.613C415.814 146.992 415.999 152.358 416.166 157.74" stroke="#4CCE8E" stroke-width="5" stroke-linecap="round"/>
<path d="M416.166 136.052V158.851" stroke="#4CCE8E" stroke-width="5" stroke-linecap="round"/>
<path d="M415.492 131.047C415.836 140.869 416.166 170.345 416.166 160.519" stroke="#4CCE8E" stroke-width="5" stroke-linecap="round"/>
<path d="M416.166 137.72C416.013 146.439 414.817 172.576 414.817 163.856" stroke="#4CCE8E" stroke-width="5" stroke-linecap="round"/>
<path d="M413.469 136.606C413.469 152.742 413.173 169.51 422.571 184.152C424.674 187.428 426.212 190.833 428.601 194.007C429.358 195.013 433.389 200.28 431.597 196.478C427.924 188.687 424.755 179.727 422.908 171.516C422.65 170.369 422.917 166.135 421.709 165.338C420.815 164.747 422.326 167.158 422.683 168.056C424.146 171.735 425.302 175.44 426.204 179.24C426.869 182.045 426.964 185.612 428.264 188.291C429.598 191.044 427.517 182.362 426.503 179.518C424.947 175.153 423.885 169.679 421.297 165.646C420.69 164.7 421.15 167.799 421.335 168.859C422.44 175.207 424.123 181.48 425.23 187.828C426.389 194.478 421.577 174.72 419.162 168.303C416.08 160.11 417.398 170.599 417.964 173.154C419.01 177.879 419.933 183.558 422.833 187.828C423.894 189.392 422.951 181.038 422.758 180.105C421.959 176.251 421.342 171.997 420.061 168.242C417.802 161.615 422.645 181.901 425.23 188.446C425.528 189.201 428.672 198.096 431.26 197.621C432.796 197.34 429.968 184.91 429.799 183.874C429.01 179.024 428.698 172.456 425.604 168.118C425.324 167.725 425.041 168.961 425.08 169.415C425.577 175.159 427.132 180.928 428.301 186.592C429.867 194.182 430.969 202.432 434.593 209.608C435.803 212.003 435.717 202.948 435.717 202.225" stroke="#4CCE8E" stroke-width="5" stroke-linecap="round"/>
<path d="M435.717 123.262C435.717 127.296 437.74 131.01 437.74 134.97C437.74 139.19 438.414 143.454 438.414 147.729C438.414 151.423 438.161 155.047 439.462 158.573C440.819 162.25 441.461 165.85 442.122 169.664C442.807 173.621 443.133 172.754 442.459 169.417" stroke="#4CCE8E" stroke-width="5" stroke-linecap="round"/>
<path d="M441.11 124.373C441.849 137.772 439.736 151.803 443.283 164.967C445.149 171.895 446.185 179.563 447.141 186.655C447.587 189.967 449.68 192.655 450.886 195.861C451.569 197.675 453.074 202.988 455.268 203.893" stroke="#4CCE8E" stroke-width="5" stroke-linecap="round"/>
<path d="M413.344 134.139C409.898 137.337 409.051 142.653 409.051 146.729C409.051 152.508 411.603 158.2 411.913 163.954C412.118 167.753 413.852 171.251 414.987 174.861C415.601 176.816 415.665 178.834 416.445 180.763C417.058 182.282 418.173 183.735 418.591 185.287C419.223 187.634 421.057 189.833 421.93 192.173C422.727 194.308 424.19 196.318 425.508 198.25C426.289 199.396 427.079 201.338 428.131 202.206C429.859 203.631 426.89 198.304 426.117 196.392C424.685 192.848 423.992 189.256 422.646 185.703C421.863 183.637 421.118 181.156 420.976 178.992C420.87 177.368 420.264 175.578 419.916 173.965C419.378 171.47 419.418 172.571 420.022 174.358C421.941 180.038 422.644 185.915 423.838 191.714C424.234 193.637 424.553 195.587 425.481 197.397C425.758 197.937 426.18 198.458 426.223 199.058C426.308 200.244 426.443 196.686 426.7 195.517" stroke="#4CCE8E" stroke-width="5" stroke-linecap="round"/>
<path d="M454.367 201.811C460.052 204.416 459.887 212.697 458.633 217.352C458.005 219.685 455.266 221.003 452.936 221.964C450.588 222.932 447.192 223.135 444.615 223.844C441.271 224.763 438.408 225.926 435.18 226.991C432.918 227.738 430.425 228.912 428.343 229.942C427.355 230.431 422.668 231.332 422.248 231.91C422.19 231.989 426.414 232.106 426.939 232.106C428.211 232.106 429.483 232.106 430.755 232.106C432.438 232.106 433.849 231.163 435.074 230.336C436.922 229.089 438.841 227.819 440.533 226.423C441.813 225.368 443.172 223.703 444.933 223.144C448.796 221.919 453.507 218.11 455.798 215.275C456.632 214.243 458.29 213.011 458.686 211.865C458.805 211.523 460.484 209.39 460.833 209.308C463.037 208.789 463.206 215.133 462.926 216.172C462.2 218.867 459.681 220.153 458.077 222.27C457.651 222.833 456.491 223.054 455.904 223.538C454.889 224.375 454.108 225.167 452.936 225.899C451.038 227.083 449.337 228.134 447.212 228.959C441.636 231.123 435.145 232.963 429.085 234.074C428.107 234.253 422.671 235.555 424.342 235.21C427.873 234.482 431.935 232.9 435.048 231.319C438.442 229.597 441.133 227.12 444.085 224.937C446.925 222.836 450.249 220.839 452.459 218.248C453.432 217.108 456.492 214.969 456.752 213.614C456.968 212.484 457.923 211.378 458.66 210.466" stroke="#4CCE8E" stroke-width="5" stroke-linecap="round"/>
<path d="M461.045 207.321C464.878 209.367 462.691 216.836 458.66 217.944" stroke="#4CCE8E" stroke-width="5" stroke-linecap="round"/>
<path d="M364.398 281.522C362.297 281.714 368.365 282.732 370.385 283.246C375.661 284.589 381.558 284.864 387.075 285.039C390.848 285.159 394.713 284.873 398.503 284.873C400.001 284.873 401.502 284.819 402.981 284.608C403.857 284.484 406.485 284.713 405.642 284.481C402.838 283.71 399.474 283.436 396.566 283.148C389.707 282.469 382.767 282.355 375.873 282.051C375.82 282.049 371.431 281.822 371.454 281.737C371.503 281.556 375.193 281.737 375.232 281.737C381.771 281.876 388.171 281.835 394.654 281.012C394.715 281.005 396.796 280.647 396.756 280.64C395.667 280.44 394.427 280.435 393.323 280.385C385.422 280.029 377.351 280.512 369.518 281.346C366.8 281.635 364.059 281.936 361.369 282.374C359.592 282.664 361.612 282.342 361.832 282.296C364.348 281.77 366.944 281.363 369.53 281.169" stroke="#4CCE8E" stroke-width="5" stroke-linecap="round"/>
<path d="M360.977 282.226C361.563 282.588 362.52 282.642 363.234 282.755C364.12 282.894 365.045 283.246 365.895 283.499C367.564 283.997 369.28 284.19 371.027 284.43C373.126 284.719 375.119 285.31 377.227 285.577C382.081 286.19 386.958 286.56 391.862 286.635C395.834 286.695 399.793 286.987 403.789 286.987C406.656 286.987 409.43 286.98 412.08 286.106" stroke="#4CCE8E" stroke-width="5" stroke-linecap="round"/>
<path d="M180.853 66.8168C180.853 64.6891 181.601 62.7493 182.707 60.8243C187.881 51.8138 196.84 44.2482 205.183 37.2289C208.966 34.0464 212.88 30.9646 216.611 27.7407C216.919 27.474 219.091 24.8 218.503 26.742C216.019 34.935 208.877 41.6763 201.437 47.2164C201.06 47.4973 191.45 53.2259 191.372 52.5222C191.199 50.9562 192.86 48.1694 193.415 46.7794C195.168 42.3886 197.47 38.1832 199.621 33.9205C201.113 30.963 202.345 27.8041 204.237 24.9942C204.543 24.5404 202.174 28.608 202.043 28.8019C195.442 38.5281 187.239 46.8488 178.204 55.0815C173.424 59.4372 178.841 51.3661 179.604 50.1502C181.882 46.5206 184.286 42.9913 186.15 39.1952C186.33 38.8298 188.269 34.8589 188.269 34.9505C188.269 44.073 181.476 52.4634 177.182 60.5122C176.081 62.5776 177.085 60.2531 177.22 59.888C178.192 57.2638 179.722 54.7991 181.307 52.3974C183.052 49.7522 184.929 47.1647 186.831 44.5946C188.031 42.9738 190.503 38.0266 190.767 39.913C191.52 45.2998 186.053 52.7261 182.518 56.8917C178.269 61.8978 180.971 58.1895 183.501 55.3936C190.766 47.3678 197.74 38.434 207.037 31.8606C212.597 27.9298 200.128 42.6002 195.496 47.2788C188.507 54.339 180.071 60.6825 170.939 65.8181C169.936 66.3822 172.589 64.3487 173.398 63.6021C177.837 59.5063 182.086 55.2923 186.756 51.3674C191.532 47.3527 196.533 43.5056 201.513 39.6633C203.929 37.7993 205.253 36.9493 204.01 40.4748C200.095 51.5839 192.523 60.9258 184.712 70.3749C184.236 70.9506 175.176 82.3883 177.901 76.7419C182.284 67.6617 185.091 58.1702 188.572 48.8393C188.676 48.5595 190.681 41.299 191.599 41.1614C192.221 41.0681 191.77 42.2004 191.75 42.722C191.696 44.1914 191.494 45.7864 191.145 47.2164C189.276 54.8819 185.259 62.5132 181.307 69.5946C178.201 75.1598 178.683 70.0372 179.226 67.0041C179.64 64.6879 180.116 62.1533 181.118 59.9504C181.442 59.2367 181.195 64.4804 181.155 64.8505C180.893 67.2899 180.437 69.7124 180.209 72.1539C180.067 73.6805 181.661 70.039 181.685 70.0003C185.22 64.3772 188.905 58.9118 192.81 53.4585C193.554 52.4189 195.65 47.8894 197.275 47.466C197.925 47.2968 197.296 48.595 197.199 49.1514C196.984 50.3842 196.282 53.9378 196.064 54.8942C194.906 59.9669 193.398 64.9889 191.372 69.8755C190.813 71.2231 190.339 74.7995 189.177 73.7456C188.183 72.8438 189.266 67.7232 189.329 67.0041C189.756 62.1362 190.081 57.1127 191.372 52.3349C191.625 51.3981 192.199 48.6102 193.302 47.903C195.363 46.581 192.683 52.1969 191.977 54.27C189.864 60.4751 186.07 65.843 182.328 71.436C182.293 71.4886 181.183 73.5399 181.685 72.0915C182.92 68.5261 185.074 65.1241 187.21 61.8855C196.277 48.1372 207.545 34.6235 220.584 23.2464C223.9 20.3532 227.449 17.2176 231.406 14.8818C235.13 12.6833 232.459 18.583 232.163 19.3138C227.685 30.3352 217.944 40.2408 207.491 47.8406C203.295 50.8918 198.787 53.6077 194.172 56.2051C192.72 57.0221 192.455 57.3216 193.567 55.9554C202.64 44.8031 216.597 36.4957 229.816 28.9892C238.708 23.9405 247.851 19.1977 257.25 14.8194C259.615 13.7178 268.502 8.40048 271.931 8.73329C274.929 9.02418 268.429 12.8509 266.142 14.4761C259.016 19.5407 250.727 23.3939 242.341 26.8356C232.667 30.8061 222.632 34.1385 212.562 37.3537C209.777 38.243 202.164 41.0263 203.821 38.9767C206.84 35.2412 212.354 32.3412 216.762 29.9255C225.612 25.0756 235.161 21.1357 244.649 17.2227C250.477 14.8191 256.327 12.4458 262.282 10.2626C263.959 9.64799 268.825 7.77644 267.504 8.82692C263.38 12.1076 258.143 14.4428 253.05 16.5048C242.567 20.7488 231.606 24.2865 220.659 27.6159C209.747 30.9349 198.702 34.0393 187.512 36.6671C186.903 36.8101 181.244 38.0923 179.945 38.2276C178.193 38.4099 179.533 37.5337 180.096 37.1664C195.738 26.9623 216.458 21.563 234.963 16.1927C241.474 14.303 248.081 12.3327 254.79 10.9493C260.925 9.6843 254.05 13.1584 253.012 13.6958C234.309 23.3755 212.821 29.1115 191.977 34.732C184.625 36.7146 177.039 38.4565 169.917 40.9742C169.616 41.0805 168.73 41.4161 169.047 41.3487C169.75 41.199 170.415 40.9459 171.09 40.7245C175.689 39.2154 180.245 37.6197 184.826 36.0741C214.177 26.17 243.642 16.9069 273.634 8.42118C276.256 7.67927 283.937 5.10763 281.505 6.2052C274.718 9.26799 267.451 11.8664 260.39 14.4449C233.389 24.3052 205 31.4757 177.22 39.6633C174.181 40.5591 165.202 43.5528 168.214 42.5971C179.383 39.0541 190.451 35.6484 201.891 32.6721C222.489 27.3133 243.451 21.5358 264.628 17.8781C266.539 17.5481 266.943 17.7398 265.158 18.6272C262.957 19.7214 256.728 22.2023 254.866 22.8718C231.301 31.3457 204.936 35.5189 179.982 40.1939C174.78 41.1685 167.099 42.5886 161.517 43.4086C160.125 43.613 156.495 44.5036 157.279 43.5335C158.362 42.1937 160.666 41.9163 162.463 41.2863C167.158 39.6395 171.375 38.3864 176.236 36.948C200.65 29.724 225.46 23.607 250.25 17.3475C250.51 17.2817 261.002 14.0304 253.655 16.5672C244.919 19.5836 236.348 22.922 227.622 25.9617C207.839 32.8528 187.944 39.5242 168.063 46.2176C164.145 47.5369 163.387 47.9234 167.609 46.0928C172.397 44.0169 177.148 41.8429 182.064 39.9754C182.36 39.8629 188.833 37.0131 187.891 39.5385C187.12 41.6036 184.667 43.4295 182.896 44.9067C178.603 48.4878 173.905 51.7452 169.274 55.0191" stroke="white" stroke-width="5" stroke-linecap="round"/>
<path d="M187.569 63.47C191.296 60.3964 196.257 59.0016 200.63 56.6706C204.054 54.8452 207.618 53.4127 210.841 51.3263C216.008 47.9811 221.58 44.7321 227.191 41.9247C231.399 39.8195 236.308 38.3546 240.812 36.7482C249.408 33.682 258.391 31.7227 267.373 29.5991C297.574 22.4592 328.562 19.0571 359.967 18.6586C372.608 18.4982 385.038 19.3586 397.502 21.1909C401.949 21.8445 406.363 22.7956 410.749 23.6812C412.77 24.0891 415.058 24.6885 417.161 24.6885" stroke="white" stroke-width="5" stroke-linecap="round"/>
<path d="M289.237 22.1723C290.695 21.7619 292.152 21.3474 293.613 20.9412C295.036 20.5453 296.482 20.2037 297.887 19.766C298.521 19.5684 300.248 19.3877 299.719 19.0385C298.977 18.5489 297.812 18.9933 296.869 19.0944C292.937 19.5163 289.026 20.066 285.115 20.6054C270.62 22.6044 253.638 25.1652 239.387 27.3488C222.37 29.956 205.025 32.2292 188.264 35.897C188.062 35.9413 185.309 36.5163 184.55 36.8203C184.297 36.9215 185.103 36.9613 185.381 36.9322C188.889 36.566 192.431 35.6938 195.846 35.0156C207.012 32.7984 218.154 30.5155 229.261 28.1043C250.607 23.47 272.089 19.1718 293.341 14.2537C294.247 14.0442 296.931 13.3524 296.004 13.4842C290.634 14.248 285.303 15.844 280.094 17.0938C248.942 24.5689 217.708 31.8301 186.517 39.1987C178.405 41.1151 170.162 42.8594 162.195 45.1726C161.8 45.2871 160.693 45.7246 161.109 45.6903C162.528 45.5732 165.727 44.9145 166.588 44.7389C190.811 39.7992 214.552 32.7889 238.148 26.1596C246.923 23.6945 255.671 21.1667 264.337 18.4509C270.076 16.6521 276.293 14.9966 281.672 12.4909C290.668 8.30001 263.262 20.2394 253.889 23.8232C237.346 30.1482 220.43 35.7218 203.649 41.5911C201.225 42.4388 193.907 44.8599 196.423 44.2213C199.339 43.4812 202.217 42.2412 205.006 41.2553C216.972 37.025 228.632 32.3251 240.218 27.4327C242.811 26.3376 245.797 25.356 248.156 23.9071C249.417 23.1323 245.324 25.0399 243.949 25.6699C232.957 30.707 221.521 35.0432 210.569 40.1361C208.691 41.0092 205.119 42.1528 203.716 43.6617C202.65 44.8096 207.022 42.6898 208.635 42.1227C220.264 38.0346 231.978 34.1825 243.797 30.4826C247.732 29.2507 251.642 27.9703 255.568 26.7192C256.538 26.4099 253.958 27.8115 253.092 28.2861C239.461 35.751 194.129 51.6807 209.144 46.3198C219.602 42.5862 230.01 38.7672 240.489 35.0715C244.756 33.5665 249.128 32.1201 253.176 30.2308C254.782 29.4813 254.349 29.5441 253.041 30.1329C242.066 35.0707 230.943 39.5437 219.253 43.2419C212.309 45.439 191.378 51.8176 198.323 49.6216C231.146 39.2432 262.299 25.5299 294.63 14.1978C295.639 13.8442 298.483 12.5721 297.683 13.1904C296.805 13.8694 295.538 14.0906 294.461 14.5335C287.169 17.5323 279.844 20.4352 272.343 23.0677C252.131 30.1615 231.487 36.3254 210.84 42.4865C209.572 42.8649 208.305 43.2462 207.041 43.6337C206.02 43.9465 202.994 44.2935 204.005 44.627C205.099 44.988 206.259 44.0584 207.38 43.7596C210.38 42.9602 214.449 41.8738 217.303 41.1014C241.294 34.6066 265.119 27.6979 289.135 21.2629C298.468 18.7622 307.847 16.3945 317.257 14.0998C318.302 13.845 320.076 13.4275 321.294 13.0925C321.528 13.0281 320.828 13.2268 320.599 13.3024C292.569 22.5504 263.392 29.2085 234.298 35.7431C230.781 36.533 220.227 38.8944 223.731 38.0655C232.066 36.0935 240.452 34.2723 248.834 32.4413C274.441 26.8475 300.11 21.3946 325.399 14.8693C330.114 13.6527 344.253 10.0829 339.409 10.882C330.503 12.3512 321.782 14.8266 312.932 16.5342C296.842 19.6387 280.592 22.6601 264.201 24.4668C263.095 24.5887 260.585 24.8153 259.283 24.8865C258.898 24.9075 258.069 25.1443 258.129 24.8305C258.239 24.2549 262.108 23.3641 262.437 23.2636C269.077 21.2337 275.848 19.4826 282.418 17.3036C283.137 17.0652 285.281 16.3227 284.555 16.5482C282.679 17.1313 280.817 17.766 278.992 18.4509C277.84 18.8832 276.689 19.3387 275.566 19.8219C274.952 20.0858 276.954 19.7975 277.635 19.696C285.498 18.523 293.65 16.3873 301.11 14.0579C301.793 13.8445 302.474 13.6245 303.145 13.3863C303.667 13.2011 304.923 13.0466 304.604 12.6588C303.926 11.8349 298.08 13.0584 297.344 13.1625C293.869 13.6541 290.372 14.1991 286.964 14.9532C286.484 15.0594 284.967 15.5564 286.421 15.2051C293.129 13.5844 299.787 11.9825 306.622 10.7421C310.781 9.9874 314.963 9.27059 319.157 8.65754C319.373 8.62597 320.647 8.37643 319.7 8.7135C318.822 9.0257 316.481 9.70892 315.866 9.8887C311.756 11.0904 307.592 12.1636 303.484 13.3723C300.586 14.2252 297.344 15.0307 294.732 16.4222C292.998 17.3458 296.973 16.9686 296.988 16.9679C301.36 16.7484 305.711 16.245 310.065 15.8766C319.028 15.1184 328.084 14.4014 337.102 14.3656C337.691 14.3633 338.308 14.2681 338.866 14.4216C339.01 14.4613 338.667 14.6251 338.527 14.6734C336.628 15.3279 334.527 15.7167 332.556 16.1844C325.992 17.7425 319.345 19.2596 312.61 20.2276C311.276 20.4193 308.996 20.9634 307.589 20.7313C306.723 20.5884 308.896 19.7174 309.692 19.4022C315.616 17.0568 322.708 16.3492 329.096 15.373C332.784 14.8094 336.479 14.2784 340.155 13.6661C341.069 13.514 343.335 13.0498 340.969 13.7221C330.961 16.5667 320.394 18.3661 310.065 20.1857C289.004 23.8958 267.783 27.0054 246.765 30.8744C233.037 33.4013 219.565 36.5906 206.006 39.6464C203.654 40.1764 200.337 40.241 198.391 41.5631C196.956 42.5377 196.886 44.3478 197.051 45.8442C197.554 50.4123 192.101 53.636 191.233 57.9319" stroke="white" stroke-width="5" stroke-linecap="round"/>
<path d="M193.675 82.6092C190.987 82.3628 192.31 74.9189 192.691 73.5434C193.212 71.6639 193.095 68.8486 194.286 67.1917C196.078 64.6974 196.758 61.6164 198.424 59.0633C201.381 54.5339 205.229 50.5036 210.315 47.2413C211.443 46.5173 212.936 46.0705 214.131 45.3946C214.967 44.9216 214.5 45.5229 214.199 45.8423C213.331 46.7621 212.152 47.4868 211.078 48.2346C209.597 49.265 205.027 52.2045 206.396 51.0747C209.821 48.25 215.394 46.6831 219.626 44.835" stroke="white" stroke-width="5" stroke-linecap="round"/>
<path d="M195.507 62.463C198.865 59.6934 203.783 58.5766 208.008 56.9368C211.785 55.4707 216.1 54.5272 219.626 52.6417C222.632 51.0349 225.682 49.1606 228.803 47.745C231.456 46.5411 234.073 45.1554 236.825 44.1075C239.101 43.2413 236.412 44.7361 235.808 44.9889C229.559 47.6032 222.615 49.3555 215.929 51.0188C213.767 51.5565 211.592 52.0545 209.433 52.5997C209.258 52.6439 207.007 53.4215 206.6 53.1733C205.859 52.7218 212.106 49.6345 212.265 49.5638C218.941 46.5921 225.971 44.3065 233.026 42.0369C236.22 41.0094 239.389 39.9331 242.575 38.8891C243.744 38.5061 247.155 37.4367 246.239 38.1476C242.644 40.9383 237.037 42.5983 232.653 44.2614C224.67 47.2896 216.45 49.8654 208.127 52.18C206.181 52.721 204.214 53.3027 202.224 53.7329C201.015 53.9943 202.38 53.3453 202.58 53.2433C209.483 49.7265 217.206 47.0485 224.613 44.3593C235.315 40.474 246.403 37.3006 257.654 34.6779C258.484 34.4845 259.315 34.2807 260.165 34.1603C261.399 33.9854 261.105 34.2754 260.436 34.8178C258.723 36.206 256.529 37.278 254.466 38.2595C248.478 41.1082 241.925 42.9938 235.367 44.7231C232.966 45.3561 230.563 45.975 228.175 46.6398C227.909 46.7139 225.698 47.4291 227.344 46.6258C239.847 40.5221 254.504 36.801 268.272 33.2229C271.248 32.4496 279.983 29.7187 277.177 30.8446C271.599 33.0827 265.764 34.946 259.927 36.6646C251.775 39.065 243.424 41.0172 235.061 42.8484C234.555 42.9594 231.428 43.9472 230.635 43.7018C229.702 43.4132 232.171 42.6323 233.06 42.2608C240.42 39.1844 248.742 37.5408 256.671 35.8252C268.905 33.1777 281.239 30.8285 293.647 28.802C295.803 28.4497 302.059 26.9756 300.143 27.8646C298.508 28.6232 296.683 29.1822 294.885 29.5994C288.998 30.965 282.76 31.3717 276.702 31.8659C266.909 32.6648 257.074 33.3437 247.24 33.6986C245.238 33.7708 247.889 33.3359 247.969 33.3209C251.08 32.7365 254.232 32.2894 257.383 31.8799C269.385 30.3196 281.478 29.3023 293.545 28.1584C307.512 26.8343 321.496 25.6772 335.474 24.4369C339.438 24.0852 343.399 23.7089 347.347 23.2477C347.691 23.2075 348.723 23.0796 348.382 23.1358C347.286 23.3165 345.6 23.5767 344.633 23.7234C327.499 26.3246 310.18 29.1645 292.799 30.3269C288.601 30.6077 291.868 29.8639 293.833 29.4455C303.299 27.4307 313.281 26.9794 322.99 26.3956C338.41 25.4684 384.755 24.0509 369.295 24.1851C363.792 24.2329 358.27 24.7594 352.775 24.9966C340.555 25.5239 328.308 25.8475 316.07 25.6681C313.551 25.6312 311.009 25.5661 308.505 25.3043C306.937 25.1404 308.519 24.9842 309.048 24.9266C316.139 24.1553 323.379 24.0378 330.504 23.5276C339.011 22.9184 347.71 22.4631 356.099 21.0792C356.543 21.006 356.987 20.9295 357.422 20.8274C358.072 20.675 357.499 20.6651 357.253 20.6595C353.758 20.5809 350.226 20.652 346.736 20.7714C335.135 21.1685 323.558 22.1669 311.965 22.7301C302.995 23.1659 294.027 23.5957 285.064 24.1291C258.239 25.7259 338.651 20.2668 365.411 18.0433C370.387 17.6298 385.284 16.2587 380.286 16.4204C372.109 16.6849 363.872 17.7993 355.743 18.519C333.713 20.4693 311.683 22.165 289.542 22.926" stroke="white" stroke-width="5" stroke-linecap="round"/>
<path d="M271.834 6.30612C277.857 5.09539 283.897 3.94577 289.949 2.83648C294.05 2.08482 291.489 2.8314 289.983 3.34014C279.977 6.72039 268.788 8.27204 258.231 9.91565C253.339 10.6773 248.423 11.3217 243.525 12.0562C242.96 12.141 241.297 12.4868 241.829 12.308C243.155 11.8623 244.546 11.5582 245.917 11.2168C255.415 8.85178 265.214 7.56678 274.989 6.25015C281.052 5.43348 285.842 4.82341 291.781 4.1236C293.035 3.97586 294.29 3.83474 295.546 3.70389C296.143 3.6418 296.8 3.38089 297.344 3.59197C298.343 3.97948 295.348 4.36957 294.325 4.7112C290.63 5.94574 286.901 7.08048 283.097 8.06891C271.933 10.9692 260.524 13.0996 249.241 15.6377C242.976 17.0472 261.606 12.3125 267.933 11.1048C277.39 9.29983 286.864 8.11343 296.564 7.81708" stroke="white" stroke-width="5" stroke-linecap="round"/>
<path d="M252.294 35.2655C262.165 35.2655 272.011 34.7618 281.892 34.7618C293.907 34.7618 305.921 34.7618 317.936 34.7618C323.783 34.7618 329.741 34.6383 335.508 35.5173C339.022 36.0529 342.614 35.9071 346.16 36.1469C349.627 36.3813 353.018 36.9475 356.472 37.2241C370.685 38.3623 384.81 40.3657 398.707 43.0721C402.454 43.802 406.289 44.2359 410.003 45.0868C415.106 46.256 420.124 47.6232 425.217 48.8082C427.927 49.4385 430.675 50.0912 433.41 50.627C434.385 50.8179 435.354 51.005 436.344 51.1306C437.653 51.2967 435.703 50.9109 435.276 50.7389C427.725 47.6975 418.787 47.2758 410.749 45.5344C404.565 44.1947 398.408 42.4882 392.787 39.9383C390.309 38.814 387.333 38.4354 384.595 37.9796C374.872 36.3613 365.126 35.4289 355.319 34.2581C352.098 33.8737 348.927 33.2926 345.719 32.8591C343.498 32.5591 346.368 33.1063 346.821 33.2229C352.382 34.6531 357.917 35.6746 363.698 36.3287C376.965 37.8301 390.381 38.7239 403.761 39.1268C410.616 39.3332 417.633 39.5629 424.488 39.1548C428.345 38.9252 420.136 38.072 419.671 38.0216C401.142 36.0106 382.306 35.1507 363.63 34.8178C360.09 34.7547 349.471 34.538 353.012 34.538C361.637 34.538 370.302 35.753 378.878 36.3707C388.994 37.0993 399.138 37.5737 409.291 37.7278C412.703 37.7796 416.172 37.8867 419.586 37.7558C421.842 37.6692 418.634 37.1843 418.552 37.1682C412.81 36.0501 406.923 35.5902 401.047 35.2934C390.567 34.7642 379.988 34.5578 369.499 35.0276C367.63 35.1113 365.688 35.231 363.817 35.3774C363.012 35.4404 360.759 35.3353 361.425 35.7132C361.935 36.0024 364.429 36.0205 364.648 36.0349C369.039 36.3247 373.442 36.4111 377.844 36.5246C394.426 36.952 410.87 38.0565 427.338 39.6864C429.332 39.8838 428.378 39.9775 427.1 40.0502C423.497 40.2551 419.904 40.4973 416.313 40.8197C410.211 41.3675 391.822 42.0648 397.96 42.0648C402.992 42.0648 408.01 42.3166 413.039 42.3166C413.816 42.3166 415.881 42.4183 413.836 42.2607C409.161 41.9003 404.503 41.3678 399.826 41.0015C393.034 40.4697 386.168 40.069 379.455 39.0289C375.881 38.4751 370.526 37.7468 375.334 34.6219C377.792 33.0235 380.439 31.784 383.119 30.4527C383.262 30.3815 390.664 27.4364 390.26 26.1157C389.963 25.1469 385.366 25.2579 384.883 25.2483C381.598 25.183 378.301 25.3328 375.028 25.5561C369.491 25.9339 363.923 26.4189 358.423 27.0671C357.339 27.1947 354.137 27.5062 355.217 27.6547C357.357 27.9488 359.886 27.8002 362.019 27.8085C369.516 27.8379 376.983 27.3117 384.425 26.5914C387.215 26.3213 390.084 25.9937 392.872 25.668C394.056 25.5296 397.597 25.3685 396.417 25.2063C392.938 24.7281 388.394 25.8685 385.002 26.1996C372.464 27.4238 359.855 28.2048 347.279 29.1097C341.304 29.5396 335.148 29.6698 329.215 30.4527C323.019 31.2704 341.746 29.8949 348.008 29.5713C359.694 28.9675 371.345 28.12 383 27.207C388.027 26.8131 393.054 26.4182 398.079 26.0038C398.843 25.9408 399.605 25.8705 400.369 25.8079C400.724 25.7788 399.669 25.9257 399.317 25.9758C380.256 28.6909 361.032 30.3527 341.919 32.7891C341.457 32.8481 340.026 33.0091 341.427 32.943C344.795 32.7843 348.162 32.436 351.519 32.1876C366.833 31.0545 382.161 30.0515 397.485 29.0257C403.258 28.6393 409.222 28.5701 414.956 27.8505C417.984 27.4705 408.921 28.7164 405.898 29.1237C384.69 31.9811 363.309 33.5726 341.953 35.4054C328.394 36.569 369.169 34.0406 382.763 33.1949C390.687 32.7019 398.673 32.2223 406.543 31.2782C406.985 31.2251 407.428 31.1717 407.866 31.0963C407.975 31.0775 407.672 30.9844 407.56 30.9844C405.181 30.9844 402.788 31.1331 400.42 31.2922C382.482 32.4972 364.641 34.3141 346.668 35.2095C340.629 35.5104 358.794 33.96 364.444 32.1736C365.326 31.8946 364.945 31.835 364.258 31.7818C362.14 31.6181 359.908 31.7642 357.795 31.8518C346.573 32.3169 335.328 33.0111 324.144 33.8944C323.056 33.9803 321.959 34.0291 320.887 34.2022C319.695 34.3945 323.31 34.061 324.517 33.9504C332.656 33.2044 340.768 32.2658 348.907 31.516C351.377 31.2885 358.776 30.9365 356.303 30.7326C351.514 30.3376 346.312 30.8806 341.546 31.0963C331.852 31.5349 322.178 32.2 312.491 32.7192C307.556 32.9837 292.782 33.9997 297.684 33.4607C308.085 32.3168 318.555 31.7267 328.961 30.6206C330.658 30.4402 332.514 30.233 334.219 30.0051C335.023 29.8975 337.278 29.8927 336.593 29.5294C336.168 29.304 334.278 29.6263 334.015 29.6553C331.327 29.9524 328.673 30.434 326.009 30.8445C319.885 31.7881 313.673 32.4005 307.572 33.4327C307.337 33.4725 306.929 33.3934 306.877 33.5866C306.716 34.1818 308.35 33.4792 309.082 33.3907C312.017 33.0359 314.94 32.6107 317.868 32.2155C323.568 31.4461 329.299 30.7718 334.965 29.8372C335.026 29.8271 337.475 29.534 335.694 29.4874C333.211 29.4224 330.69 29.5112 328.214 29.6413C314.16 30.3797 272.258 34.9819 286.217 33.4467C290.923 32.9292 295.59 32.1392 300.296 31.6C307.934 30.7245 315.604 30.0511 323.228 29.0817C323.376 29.0627 327.617 28.4941 325.026 28.4941C319.343 28.4941 313.561 29.4856 307.979 30.2429C296.193 31.8421 284.353 33.1878 272.445 34.0063" stroke="white" stroke-width="5" stroke-linecap="round"/>
<path d="M303.455 26.3174C307.93 26.3174 313.253 27.8744 317.548 28.7987C323.517 30.083 329.544 31.454 335.35 33.1834C340.582 34.7418 346.171 35.8182 351.628 36.7184C358.012 37.7716 364.193 39.8836 370.543 40.9672C383.478 43.1746 396.876 48.3283 406.93 55.3452C416.169 61.7932 427.122 67.9363 432.191 77.4389C435.93 84.4479 441.576 90.3194 443.812 97.9012C446.02 105.388 449.351 112.611 451.024 120.199C451.847 123.933 453.29 128.596 453.29 132.401C453.29 133.455 452.556 130.383 452.177 129.376C451 126.247 449.661 123.136 448.84 119.927C447.77 115.748 446.058 110.889 445.873 106.603C445.542 98.9725 443.259 91.5063 441.092 84.1011C439.829 79.783 438.919 75.6111 436.807 71.4566C433.778 65.4998 429.417 60.8033 424.938 55.5491C421.533 51.5539 416.954 47.4223 414.059 43.2446C411.282 39.2351 418.425 52.0118 422.384 55.2772C424.356 56.9039 417.358 53.2794 414.884 52.2181C406.883 48.7864 398.704 45.9449 390.241 43.3806C385.49 41.941 392.817 44.3999 393.743 44.7742C400.087 47.337 406.453 50.1956 412.576 53.1018C414.304 53.9219 419.504 56.3582 417.768 55.5491C412.066 52.8909 406.542 49.9657 401.161 46.8816C399.931 46.1765 392.192 41.0721 397.576 44.6042C405.984 50.1212 414.496 55.3777 423.661 60.0359C427.132 61.8001 431.13 64.1113 434.952 65.3723C437.917 66.3505 430.076 61.9677 427.741 60.1718C424.891 57.9808 417.1 50.8434 419.334 53.4757C422.958 57.746 426.729 61.7573 430.708 65.8142C431.33 66.4487 435.468 70.3058 432.603 67.5137C426.6 61.6617 420.753 55.7726 415.172 49.6348C412.771 46.9942 405.33 39.2876 408.249 41.5451C412.563 44.8807 416.464 49.7466 419.581 53.8496C422.392 57.549 424.456 61.5894 427.164 65.3384C429.068 67.975 426.739 63.0682 426.504 62.5851C424.148 57.7253 420.915 53.1947 418.015 48.5471C416.771 46.5526 414.532 43.9326 416.367 47.9693C419.015 53.7933 422.586 59.5165 426.34 64.8965C428.722 68.3111 431.323 71.62 433.922 74.9236C435.174 76.515 436.662 79.1259 438.702 80.2261C441.572 81.7741 436.746 74.7613 435.117 72.2724C433.148 69.2644 431.039 66.3425 429.142 63.2989C427.181 60.1537 433.575 76.9648 432.397 73.564C431.268 70.303 425.686 66.8776 423.043 64.5226C420.455 62.2167 412.705 55.2919 415.213 57.6565C416.376 58.7526 424.881 69.0236 424.938 68.8734C425.816 66.5818 416.684 53.073 415.625 53.5097C414.851 53.8289 433.662 74.1317 435.488 76.1813C438.883 79.9929 442.089 83.8346 445.131 87.84C447.441 90.8825 450.887 93.3934 452.837 96.6095C453.813 98.2205 454.244 100.411 454.609 102.184C456.024 109.057 457.567 115.748 458.318 122.714C458.505 124.452 459.39 129.453 458.318 127.949C456.285 125.099 455.24 121.176 454.403 117.989C452.646 111.301 446.828 91.4013 449.664 97.8332C450.903 100.644 452.216 103.476 452.837 106.433C453.034 107.372 454.06 114.487 452.96 110.206C451.963 106.321 450.62 102.323 449.004 98.581C448.403 97.1889 448.206 97.6721 448.139 98.8869C447.959 102.155 448.192 105.454 448.51 108.71C449.048 114.227 450.152 119.645 450.982 125.127C451.403 127.901 451.807 124.58 451.807 123.598C451.807 121.263 451.065 118.987 451.065 116.664C451.065 113.945 451.065 122.102 451.065 124.822C451.065 126.711 451.004 128.61 451.106 130.498C451.155 131.398 452.569 133.183 451.477 133.183C451.382 133.183 449.076 127.056 448.881 126.385C447.545 121.794 448.098 131.529 448.098 132.945C448.098 135.291 448.098 128.255 448.098 125.909C448.098 120.182 445.131 114.789 445.131 109.22C445.131 107.767 444.389 103.45 444.389 104.903C444.389 108.008 445.567 110.285 446.449 113.197C447.778 117.58 446.614 123.397 446.614 127.881C446.614 130.985 446.614 134.09 446.614 137.194C446.614 141.912 447.873 131.442 448.098 130.328" stroke="white" stroke-width="5" stroke-linecap="round"/>
<path d="M241.477 42.7249C243.396 41.3174 249.421 41.3206 251.848 41.2152C255.641 41.0505 259.651 40.1241 263.44 39.6775C274.007 38.4324 284.668 36.1828 295.471 36.1828C311.417 36.1828 327.409 35.4902 343.364 36.1828C347.801 36.3755 353.858 36.8661 358.041 37.9442C362.179 39.0109 367.783 38.707 371.429 40.712" stroke="white" stroke-width="5" stroke-linecap="round"/>
<path d="M197.39 75.2944C194.345 75.2944 195.523 71.2718 196.067 69.7986C196.712 68.0515 198.04 64.0098 200.943 64.0098" stroke="#4CCE8E" stroke-width="5" stroke-linecap="round"/>
<path d="M225.107 55.3633C222.637 56.3108 220.366 57.3431 218 58.4409C216.176 59.2872 214.463 60.2543 212.532 60.9323C210.389 61.6842 208.292 62.5345 206.185 63.3505C203.851 64.2539 201.188 64.9733 198.989 66.0617" stroke="#4CCE8E" stroke-width="5" stroke-linecap="round"/>
<path d="M199.166 64.3025C200.099 64.3025 201.341 63.5339 202.147 63.1301C203.368 62.5189 204.674 61.9207 206.017 61.518C207.891 60.9559 209.698 60.2415 211.594 59.6942C212.641 59.392 213.782 59.2152 214.762 58.7661C215.938 58.2275 217.334 58.1502 218.533 57.7076C220.66 56.9226 222.828 56.2319 224.969 55.5093C227.813 54.5495 230.528 53.4284 233.28 52.2933C239.334 49.7966 245.478 47.3931 252.114 46.1299" stroke="#4CCE8E" stroke-width="5" stroke-linecap="round"/>
<path d="M236.834 49.502C235.814 49.6422 234.731 50.3852 233.734 50.707C232.707 51.0386 231.738 51.6065 230.655 51.8143C230.088 51.923 229.698 52.2511 229.154 52.4005C228.461 52.591 227.74 52.7365 227.062 52.9542C224.468 53.7862 221.989 54.7175 219.422 55.584C212.717 57.8462 205.806 59.6606 199.344 62.3254C198.353 62.7341 197.6 63.4677 196.61 63.9213C194.068 65.0858 201.371 61.1383 203.964 60.0539C208.211 58.2776 212.415 56.5406 216.806 55.0059C219.842 53.9445 222.86 52.8214 225.818 51.6189C227.495 50.9371 229.286 50.4659 230.971 49.7951C234.651 48.3295 238.576 47.1466 242.411 45.9847C247.372 44.4816 252.636 43.2967 257.898 42.7605C261.982 42.3445 265.994 41.7374 270.099 41.4415C275.652 41.0413 281.213 40.702 286.761 40.2691C297.258 39.4501 307.844 39.0967 318.388 39.0967" stroke="#4CCE8E" stroke-width="5" stroke-linecap="round"/>
<path d="M405.381 118.147C406.028 125.626 408.797 132.909 409.127 140.262C409.266 143.354 411.376 146.203 411.376 149.362C411.376 150.39 412.125 153.412 412.125 152.384C412.125 150.466 410.221 148.612 409.918 146.615C409.503 143.873 409.127 141.229 409.127 138.545C409.127 136.381 407.629 134.271 407.629 132.055C407.629 127.259 404.631 122.648 404.631 118.147" stroke="#4CCE8E" stroke-width="5" stroke-linecap="round"/>
<path d="M194.806 64.9912C194.478 67.421 192.972 74.7429 196.304 76.1172" stroke="#4CCE8E" stroke-width="5" stroke-linecap="round"/>
<path d="M398.096 210.445C398.104 211.058 398.166 211.654 398.258 212.26C398.317 212.646 398.42 213.048 398.42 213.437C398.42 213.792 398.437 214.146 398.376 214.498C398.338 214.721 398.329 214.948 398.276 215.169C398.255 215.258 398.253 215.345 398.238 215.433C398.235 215.452 398.174 215.234 398.168 215.205" stroke="#4CCE8E" stroke-width="5" stroke-linecap="round"/>
<path d="M397.266 209.88C397.099 209.972 397.17 210.432 397.156 210.581C397.136 210.789 397.045 211.09 397.14 211.293C397.2 211.422 397.158 211.616 397.158 211.754C397.158 211.962 397.158 212.171 397.158 212.379C397.158 212.543 397.214 212.693 397.232 212.855C397.253 213.043 397.259 213.269 397.32 213.45C397.4 213.688 397.395 213.979 397.41 214.223C397.497 215.575 397.23 216.918 397.23 218.269" stroke="#4CCE8E" stroke-width="5" stroke-linecap="round"/>
<path d="M424.499 266.599C425.765 267.213 425.65 269.382 425.933 270.432C426.281 271.722 425.738 273.17 425.738 274.436C425.738 275.485 424.65 276.673 424.246 277.635C423.808 278.678 421.814 279.646 421.814 280.739" stroke="#4CCE8E" stroke-width="5" stroke-linecap="round"/>
<path d="M379.912 288.988C381.584 288.988 383.192 289.11 384.882 289.11C389.12 289.11 393.34 288.865 397.573 288.865C400.165 288.865 402.73 288.504 405.312 288.349C408.396 288.163 411.519 288.046 414.591 287.764C417.324 287.514 420.101 287.044 422.767 286.486C423.745 286.282 424.717 286.028 425.668 285.745C426.047 285.633 426.466 285.533 425.898 285.439" stroke="white" stroke-width="5" stroke-linecap="round"/>
<path d="M370.344 286.491C370.793 286.491 371.313 286.739 371.725 286.875C372.557 287.15 373.402 287.342 374.271 287.509C375.597 287.764 376.872 287.925 378.235 288C380.034 288.098 383.643 287.917 383.643 287.917" stroke="white" stroke-width="5" stroke-linecap="round"/>
<path d="M368.482 287.038C368.482 286.789 368.58 286.564 368.253 286.487C367.86 286.394 368.268 286.27 368.482 286.27C368.88 286.27 369.251 286.161 369.646 286.161C370.292 286.161 370.963 286.106 371.622 286.106C373.213 286.106 374.817 286.292 376.391 286.462C377.909 286.627 379.442 286.676 380.968 286.752C383.495 286.878 385.998 286.661 388.512 286.517C390.538 286.402 392.557 286.293 394.578 286.118C395.518 286.037 396.474 286.051 397.407 285.941" stroke="white" stroke-width="5" stroke-linecap="round"/>
<path d="M395.456 286.608C400.673 286.608 408.422 289.32 413.353 286.608" stroke="white" stroke-width="5" stroke-linecap="round"/>
<path d="M393.933 286.924C397.273 286.924 401.675 287.517 404.891 286.854C408.095 286.194 411.914 286.193 414.876 285.039C416.192 284.527 417.726 284.617 419.065 284.097C420.135 283.682 421.184 282.93 422.196 282.596C423.308 282.23 430.511 278.811 429.897 278.304C427.673 276.47 422.718 281.09 421.519 281.881C418.051 284.17 413.631 284.888 409.545 285.825C406.99 286.41 404.034 286.296 401.401 286.296C399.151 286.296 396.969 286.61 394.716 286.61C391.367 286.61 401.569 286.292 404.595 285.109C413.707 281.549 425.759 277.878 430.108 269.806C430.458 269.156 430.905 268.467 431.42 267.921C432.497 266.779 431.291 267.454 430.87 268.235C429.828 270.17 428.313 272.012 427.083 273.872C425.538 276.209 422.622 278.082 420.144 279.717C414.968 283.133 408.238 283.761 401.929 284.411" stroke="white" stroke-width="5" stroke-linecap="round"/>
<path d="M397.057 284.934C397.333 284.934 398.541 284.829 398.691 284.674C398.945 284.413 400.169 284.424 400.577 284.312" stroke="white" stroke-width="5" stroke-linecap="round"/>
<path d="M397.182 284.83C396.441 284.83 395.69 284.934 394.919 284.934C394.293 284.934 393.705 285.095 393.09 285.135C392.619 285.166 392.076 285.157 391.623 285.268C390.702 285.493 389.467 285.556 388.508 285.556C387.13 285.556 385.786 285.763 384.422 285.861C383.269 285.944 381.987 285.971 380.84 285.971C379.578 285.971 378.316 285.971 377.054 285.971C375.185 285.971 373.294 285.867 371.411 285.867" stroke="white" stroke-width="5" stroke-linecap="round"/>
<path d="M429.868 265.438C430.531 266.669 429.063 267.792 428.988 268.964C428.926 269.935 428.092 271.039 427.326 271.741C424.886 273.977 421.95 275.831 418.679 277.259C416.514 278.205 414.519 279.576 412.24 280.37C409.297 281.395 406.332 282.377 403.217 282.986C401.2 283.379 399.154 283.847 397.154 284.311C396.116 284.551 395.07 284.753 394.067 285.059C393.319 285.288 392.527 285.428 391.77 285.659C390.56 286.026 389.326 286.101 388.103 286.384C387.258 286.58 386.406 286.594 385.554 286.753C384.915 286.872 384.264 287.007 383.605 287.007" stroke="white" stroke-width="5" stroke-linecap="round"/>
</svg>
