<svg width="136" height="148" viewBox="0 0 136 148" fill="none" xmlns="http://www.w3.org/2000/svg">
<path d="M33.0742 2.80666C37.1 2.25386 40.994 1.68049 44.547 4.04918C47.4576 5.98954 49.0565 9.28583 50.2909 12.4641C51.9059 16.6224 52.61 21.0971 53.2968 25.4845C53.9054 29.3733 54.6275 33.2804 54.9038 37.2103C55.0892 39.8468 54.8407 42.1445 53.1256 44.2934C50.2844 47.8531 45.4968 48.8701 42.1662 51.8229C40.8368 53.0014 39.7585 54.6726 39.324 56.406C38.6444 59.1173 40.3227 61.9336 41.3775 64.3224C43.1916 68.4308 45.1872 72.4883 47.2702 76.4649" stroke="#4CCE8E" stroke-width="3" stroke-linecap="round"/>
<path d="M34.4009 2.41211C30.5399 3.0778 26.7006 4.17041 23.2107 5.97769C21.4911 6.86817 19.8331 7.94465 18.1767 8.94636C16.5865 9.90804 14.9818 10.8961 13.6242 12.1777C12.3269 13.4023 11.2831 14.8887 10.3491 16.3999C8.39265 19.5654 6.95225 22.9782 5.85234 26.5276C4.69132 30.2741 3.88868 34.0423 4.0576 37.9804C4.12197 39.481 4.28833 40.9719 4.47545 42.4613C4.80175 45.0585 5.13876 47.6628 5.66132 50.2291C6.1336 52.5486 6.64334 55.0168 7.65105 57.1773C7.87772 57.6633 8.28062 58.3406 8.66978 58.7452C9.68682 59.8025 8.56327 58.5264 9.402 59.1431" stroke="#4CCE8E" stroke-width="3" stroke-linecap="round"/>
<path d="M8.32812 57.7109C8.7175 58.7307 9.1405 59.7444 9.58961 60.7393C10.1664 62.017 10.9598 63.1778 11.647 64.3964C12.2528 65.4707 12.7626 66.5961 13.2786 67.7153C14.5418 70.4554 15.8472 73.1691 17.25 75.8413C18.4337 78.0961 19.6623 80.3219 20.9907 82.4949C22.5742 85.0853 24.0258 87.7993 25.8496 90.231C29.7696 95.4576 34.2973 100.315 39.129 104.7" stroke="#4CCE8E" stroke-width="3" stroke-linecap="round"/>
<path d="M37.8398 103.769C38.0768 103.962 38.2681 104.237 38.4646 104.465C39.0385 105.131 39.651 105.743 40.2991 106.335C41.3572 107.303 42.4398 108.199 43.5862 109.061C44.9973 110.123 46.4547 111.132 47.7327 112.356C49.4373 113.989 51.0226 115.761 52.6195 117.498C54.0403 119.043 55.3685 120.677 56.8576 122.158C59.19 124.477 61.9876 126.29 64.6932 128.139C70.4139 132.047 76.1212 135.973 82.0356 139.584" stroke="#4CCE8E" stroke-width="3" stroke-linecap="round"/>
<path d="M46.6484 75.2598C47.985 77.425 49.7587 79.245 51.4397 81.1374C52.7254 82.5849 53.8515 84.1309 55.0212 85.67C56.1712 87.1832 57.5162 88.5129 58.9131 89.7967C62.3277 92.9348 66.0095 95.6723 69.9839 98.054C71.7192 99.094 73.3929 100.22 75.1015 101.301C76.3993 102.122 77.7514 102.945 79.2123 103.442C80.9599 104.038 83.1296 104.215 84.9546 103.936C87.7687 103.505 89.0195 100.798 90.6691 98.8181C91.8106 97.4483 93.0112 96.0733 94.3143 94.8546C95.179 94.0458 96.1383 93.3847 97.3784 93.4777C98.0601 93.5288 98.8157 93.7525 99.4477 93.9711C101.387 94.642 103.271 95.4723 105.206 96.1598C107.96 97.1388 110.739 97.9704 113.551 98.7544" stroke="#4CCE8E" stroke-width="3" stroke-linecap="round"/>
<path d="M111.333 98.2529C112.198 98.4784 113.023 98.9745 113.808 99.3831C114.955 99.9798 116.086 100.606 117.231 101.206C120.308 102.819 123.676 103.817 126.972 104.875C128.152 105.253 129.188 105.737 130.243 106.383C130.697 106.66 131.184 106.932 131.565 107.31C132.162 107.904 132.486 108.755 132.743 109.539C133.217 110.986 133.421 112.537 133.61 114.043C133.877 116.171 134.196 118.414 133.968 120.558C133.751 122.596 132.883 124.406 131.843 126.145C130.57 128.274 129.273 130.446 127.836 132.468C126.55 134.278 124.718 135.557 122.913 136.806C120.381 138.559 117.769 140.051 114.97 141.342C113.599 141.975 112.22 142.6 110.836 143.205C109.72 143.692 108.59 144.175 107.386 144.399C106.406 144.58 105.416 144.547 104.429 144.474C102.917 144.363 101.406 144.201 99.8962 144.06C93.7534 143.488 87.9113 141.32 81.9648 139.798" stroke="#4CCE8E" stroke-width="3" stroke-linecap="round"/>
<path d="M27.8483 32.0986C27.3482 33.5543 26.8538 35.0115 26.3672 36.4715" stroke="#4CCE8E" stroke-width="30" stroke-linecap="round"/>
<path d="M34.7604 20.8848C34.6961 20.9973 34.429 20.8502 34.349 20.8182C34.0275 20.6896 34.1303 21.0838 34.1413 21.308C34.1759 22.0152 34.2216 22.7479 34.3999 23.4356C34.4608 23.6705 34.5211 23.6761 34.2824 23.7687C32.0057 24.6515 29.668 25.192 27.2215 25.2577C26.8422 25.2678 26.5096 25.2816 26.1361 25.1793C25.596 25.0313 25.7224 24.8975 25.9441 24.4818" stroke="#4CCE8E" stroke-width="30" stroke-linecap="round"/>
<path d="M21.9258 22.4365C22.0907 22.6673 22.3203 22.7968 22.5606 22.9302" stroke="#4CCE8E" stroke-width="30" stroke-linecap="round"/>
<path d="M29.1875 21.8013C29.5037 21.2521 29.5787 20.7434 30.2376 20.7434C30.5785 20.7434 30.8327 20.6631 31.1271 20.4926C31.2675 20.4113 31.2422 20.3477 31.0957 20.2928C30.8778 20.2111 31.1421 20.1732 31.2642 20.0929C31.4573 19.9661 31.6259 19.8354 31.5934 19.5914C31.5716 19.4281 32.2386 19.162 32.3457 19.1134C33.2609 18.6973 34.382 18.9564 35.3589 18.8077C35.697 18.7563 35.8687 18.595 36.1308 18.3806C36.2806 18.2581 36.3182 18.7231 36.3698 18.9096C36.6933 20.0783 37.1663 21.1983 37.4944 22.3656C37.7172 23.1583 37.552 23.9193 37.5728 24.7323C37.5933 25.5376 37.7124 26.3181 37.9332 27.0911" stroke="#4CCE8E" stroke-width="30" stroke-linecap="round"/>
<path d="M38.7112 18.3457H38.6406" stroke="#4CCE8E" stroke-width="30" stroke-linecap="round"/>
<path d="M17.2676 32.4514C17.1879 32.9961 16.7992 33.2817 16.2723 33.4036C15.8161 33.5092 14.7608 33.6972 14.3445 33.3605C13.7638 32.8907 13.444 31.8688 13.0906 31.2407C12.4457 30.094 11.7882 28.8547 10.8807 27.8905C10.7639 27.7664 10.59 27.5914 10.434 27.4908C10.2588 27.3778 10.2855 27.8864 10.2694 28.0942C10.0524 30.9087 10.0615 33.7626 9.73653 36.5657C9.73272 36.5986 9.1621 35.5786 9.91678 36.1895C10.2643 36.4708 10.4792 36.8935 10.6769 37.2945C11.5728 39.1113 12.8023 42.5153 13.4825 44.3162C13.8396 45.2616 14.1847 46.2116 14.5522 47.1531C14.862 47.9468 15.3187 48.6966 15.4887 49.5315C15.5213 49.6917 15.6212 49.9726 15.4652 50.0213C15.2544 50.0871 15.0433 49.8646 14.8735 49.7235C14.4807 49.3971 14.1331 49.0178 13.7959 48.6342C13.0718 47.8104 12.0664 46.4751 11.4449 45.5465C11.0458 44.9503 10.6845 44.3819 10.5633 43.6775C10.4208 42.8494 10.2979 42.0181 10.1597 41.1893C10.085 40.7412 9.91402 39.4238 9.82274 39.8688C9.66651 40.6305 10.1055 42.1422 10.2224 42.8037C10.5204 44.4896 10.8265 46.1837 11.2373 47.8466C11.7321 49.8497 12.5105 51.801 13.3884 53.6653C14.5108 56.0487 16.0725 58.0945 17.7064 60.1463C18.1189 60.6642 18.3748 60.9546 17.918 60.4519C16.8402 59.2656 15.7624 58.0918 14.5757 57.0116C14.0247 56.5101 13.3643 56.0712 12.9104 55.4678C12.4824 54.8988 12.2058 54.2103 12.0131 53.5321C11.7322 52.5435 11.5885 51.6333 11.3862 50.6169C11.0183 48.7695 10.5929 46.9624 10.0343 45.1625C9.56459 43.649 8.93125 42.149 8.70993 40.5702C8.68315 40.3792 8.52249 40.0288 8.92935 40.0765C9.22907 40.1117 9.50837 40.2469 9.79923 40.3273C12.0821 40.9586 13.2073 41.3126 15.7865 41.5812C23.1597 42.3489 30.8454 41.7091 37.6273 38.5797C39.5651 37.6855 41.4167 36.6233 43.305 35.6331C44.5246 34.9936 45.9989 34.1347 47.3997 34.0031C47.7469 33.9705 47.9234 34.039 48.1363 34.293C48.2685 34.4507 48.3957 35.0232 48.7045 34.9631C49.2739 34.8522 49.946 34.1174 50.3228 33.7366C50.6325 33.4236 51.2736 32.2681 51.1143 32.6787C50.1996 35.0357 49.0878 37.3448 48.0736 39.6612C47.7926 40.303 47.5979 40.7761 47.0392 41.2285C46.715 41.491 46.34 41.6847 45.9773 41.8907C45.4931 42.1657 44.9891 42.4042 44.5001 42.6705C44.1662 42.8523 43.7819 42.9702 43.5088 43.2347C43.3878 43.3518 43.85 43.2109 44.0064 43.1485C44.7801 42.8397 45.5412 42.4975 46.2869 42.1258C48.0927 41.2257 51.0987 40.0471 51.4747 37.6785C51.5478 37.2182 51.395 36.7495 51.3337 36.2875C51.2154 35.3966 51.1054 34.9819 50.9536 34.152C50.9231 33.9853 51.0387 33.6769 50.8713 33.6504C50.6323 33.6126 50.4404 33.8809 50.2601 34.0423C49.6433 34.5941 49.0801 35.2029 48.489 35.782C44.9664 39.233 44.5926 39.6835 40.6209 43.125C39.1759 44.3772 37.6708 45.5587 36.2167 46.8004C33.8643 48.8091 32.1106 50.1027 30.4411 52.6544C29.9287 53.4375 29.5284 54.2999 29.2264 55.1857C28.6347 56.9212 28.9746 57.3947 28.8189 59.0962C28.6293 61.1671 27.144 55.2767 26.558 53.2813C26.2885 52.3636 24.4203 46.9697 24.9319 45.2409C25.1181 44.6115 25.8421 44.19 26.4757 44.0184C27.3757 43.7746 32.7973 44.0259 33.4974 44.0967C34.7693 44.2254 38.2529 44.3937 38.5951 46.3302C38.8261 47.6369 37.493 48.3533 36.875 49.2376" stroke="#4CCE8E" stroke-width="10" stroke-linecap="round"/>
<path d="M39.8402 44.3008C40.3659 44.3271 40.2131 44.8632 40.33 45.2294C40.4044 45.4624 40.6957 45.6214 40.9139 45.6918C41.2775 45.8091 42.2193 45.4123 39.9264 46.0053C37.0752 46.7427 33.2002 47.7094 30.5381 48.3719C26.6575 49.3377 22.7668 50.261 18.8849 51.2206C18.8284 51.2346 18.74 51.2245 18.7204 51.2794C18.7052 51.3218 18.801 51.3362 18.8457 51.3303C20.2645 51.1431 22.5596 50.5073 23.6261 50.2253C30.156 48.499 28.4038 48.864 35.0834 47.1063C36.1615 46.8226 39.771 45.869 41.3919 45.6252C42.4375 45.4679 42.4496 46.036 42.732 46.8399" stroke="#4CCE8E" stroke-width="10" stroke-linecap="round"/>
<path d="M22.6988 54.8802C22.9542 55.902 23.5925 56.8843 24.0819 57.8072C24.2431 58.111 24.4244 58.7141 24.9244 58.6966C25.2257 58.6861 25.5189 58.5521 25.7786 58.3988C26.6333 57.8943 28.2891 56.43 28.9446 55.8676C29.5395 55.3572 31.3793 53.7101 32.142 53.1953C33.0002 52.6159 33.5197 52.5638 33.8269 53.5636C34.0658 54.3412 34.0032 54.9881 33.9287 55.7657C33.7272 57.8694 33.938 59.9549 34.3794 62.0194C34.7908 63.944 35.1309 65.0046 35.7312 66.8821C35.9638 67.6095 36.2398 68.3231 36.4522 69.0567C36.5759 69.4844 36.7797 69.9182 36.7382 70.3615C36.7254 70.4986 36.4284 70.4896 36.3268 70.3968C35.6899 69.8155 33.0038 66.1315 32.8551 65.9456C32.3058 65.2585 31.8548 64.4453 31.1271 63.9511C30.9277 63.8157 30.8792 64.4223 30.9508 64.6525C31.3641 65.9805 32.0223 67.2195 32.5456 68.5082C33.1848 70.0826 34.0229 71.5938 34.4381 73.2415C35.4489 77.2529 32.7648 74.7644 31.1389 73.4374C29.4939 72.095 28.062 70.5107 26.5074 69.0646C25.5149 68.1413 24.6479 67.0474 23.4981 66.3296C23.1758 66.1283 23.6587 67.0879 23.8586 67.411C24.9692 69.2066 26.6083 71.1419 27.8867 72.8614C28.7616 74.0384 26.772 72.1324 26.7582 72.1209C25.7329 71.2648 24.9761 70.2478 23.8155 69.5348C23.1135 69.1035 22.656 68.9138 21.9386 68.5042C20.9882 67.9617 20.1485 67.3271 19.329 66.6039C18.3829 65.7689 17.4507 64.8992 16.5626 64.0021C16.0566 63.4909 15.569 62.9496 15.2069 62.325C14.2849 60.7345 17.0876 65.4853 18.083 67.0309C19.2844 68.8967 19.7055 69.5167 20.818 71.3255C21.5867 72.5754 22.2874 73.8923 23.1611 75.0753C26.3114 79.3408 30.385 82.8978 34.2657 86.4777" stroke="#4CCE8E" stroke-width="10" stroke-linecap="round"/>
<path d="M36.1718 67.1523C36.4333 68.3149 36.6965 69.4756 37.0966 70.6005C37.8928 72.839 39.0324 74.9448 40.192 77.0109C42.1416 80.4843 44.1331 83.9353 46.1009 87.3984C46.9388 88.8731 47.6859 90.4073 48.6557 91.7987C48.7602 91.9488 48.5346 91.4524 48.4519 91.2894C47.2029 88.8268 45.8688 86.4084 44.5884 83.962C42.7495 80.4484 40.6993 76.8942 39.3065 73.1631C39.1618 72.7755 39.0271 72.256 38.9538 71.8387C38.9059 71.5656 38.9219 70.7959 38.7697 71.0276C38.5311 71.3906 38.103 72.6889 38.0526 72.8418C37.6447 74.079 37.3578 74.9765 37.2298 76.2899C37.0844 77.7813 37.2107 78.78 37.4649 80.267C37.8637 82.6006 38.5415 84.8738 39.4946 87.0419C39.7944 87.724 41.1649 90.462 41.634 91.1483C42.4708 92.3725 42.5187 91.6816 42.449 90.4743C42.3799 89.2773 41.5204 83.0611 41.4224 82.3085C41.0203 79.2219 40.6745 76.1344 40.3292 73.0416C40.2608 72.4292 40.341 71.0455 39.7845 70.5574C39.0907 69.9488 38.6997 69.6303 37.5668 69.758C33.8968 70.1718 30.8959 73.1512 28.4997 75.6787C27.673 76.5507 26.5149 78.0985 25.749 79.1895C25.5005 79.5435 25.0055 80.2657 24.9027 80.6941C24.3992 82.7927 26.0181 84.5627 27.3516 85.9212C30.9989 89.6368 34.9115 92.9446 39.2752 95.7876" stroke="#4CCE8E" stroke-width="10" stroke-linecap="round"/>
<path d="M42.0273 81.3291C42.8037 83.2834 44.3741 84.9151 46.1377 85.9998C48.08 87.1943 49.5408 88.798 50.6634 90.788C51.8746 92.9351 47.9768 86.6507 46.7529 84.5108C46.7038 84.4251 46.3996 83.638 46.4551 83.782C46.9031 84.9444 47.2213 86.1541 47.6698 87.3163C48.8484 90.3706 50.0794 93.3101 51.9408 96.0386C54.3657 99.5931 57.484 102.004 60.949 104.416C61.5269 104.818 62.0813 105.255 62.677 105.631C62.8398 105.733 63.1923 106.033 63.2138 105.842C63.2496 105.524 62.93 105.266 62.7476 105.004C62.2039 104.221 61.6173 103.469 61.0392 102.712C57.411 97.9581 53.6458 93.2967 49.5858 88.9033C48.4663 87.6918 47.2382 86.5648 46.2004 85.2788C45.9832 85.0097 44.0199 82.3891 45.021 82.4968C45.4905 82.5473 46.1168 82.7948 46.4629 83.1237C46.8603 83.5014 46.8517 84.0801 46.9645 84.5735" stroke="#4CCE8E" stroke-width="10" stroke-linecap="round"/>
<path d="M44.2123 94.0244C44.6586 95.3393 45.1228 96.5448 45.858 97.7312C47.0354 99.6313 48.3744 101.428 49.553 103.33C50.1307 104.263 50.7585 105.297 51.2966 106.261C51.4629 106.559 51.6373 106.854 51.7747 107.167C51.8114 107.25 51.9049 107.437 51.8139 107.437C51.6678 107.437 51.5738 107.268 51.469 107.167C51.2398 106.944 51.0306 106.701 50.8147 106.465C50.4337 106.049 49.8865 105.42 49.4824 105.008C48.5971 104.104 47.4425 103.57 46.6181 102.606C45.6177 101.435 44.7863 100.136 43.4678 99.2907C42.7539 98.8327 41.9849 98.3914 41.2226 98.0172C40.9483 97.8825 40.6662 97.7612 40.3762 97.6646C39.7838 97.4671 40.23 98.0239 40.3919 98.2915C41.5731 100.244 42.7948 102.194 44.1496 104.032C45.86 106.353 47.7856 108.482 50.0976 110.223C51.7081 111.436 53.4049 112.245 55.215 113.068" stroke="#4CCE8E" stroke-width="10" stroke-linecap="round"/>
<path d="M55.9922 93.6719C56.742 94.5355 57.4387 95.3186 58.3981 95.9524C60.035 97.0337 61.5067 98.3443 63.0766 99.518C66.3179 101.942 70.0536 103.588 73.7423 105.207C75.7375 106.084 77.7461 106.913 79.851 107.492C80.7316 107.734 81.6246 107.929 82.5115 108.146C83.3761 108.358 84.2525 108.526 85.1055 108.781C85.5513 108.914 86.6222 108.898 86.3985 109.306C86.0818 109.884 85.1493 109.733 84.506 109.874C80.6011 110.732 76.6575 111.405 72.7196 112.096C70.7611 112.439 68.7858 112.684 66.8303 113.044C64.1518 113.538 63.4851 113.408 66.2347 114.651C67.3707 115.164 68.5478 115.584 69.726 115.991C69.9728 116.076 70.7079 116.279 70.4979 116.124C69.3607 115.284 68.0811 114.655 66.8891 113.894C65.2519 112.85 63.5576 111.883 62.0108 110.709C58.3226 107.909 62.3241 109.489 63.8602 110.051C65.6306 110.698 67.3293 111.527 69.0834 112.217C70.1591 112.641 71.1967 113.278 72.3474 113.389C72.6817 113.421 72.1416 112.718 71.8968 112.488C71.046 111.689 70.0733 111.028 69.1186 110.356C66.1446 108.264 67.1144 109.166 68.5387 110.489C70.9348 112.716 77.3992 117.758 74.2125 118.495C73.0777 118.757 71.8829 118.328 70.7408 118.099C70.483 118.047 63.9928 116.242 63.3195 116.061C62.4622 115.831 61.6031 115.608 60.7412 115.395C60.3989 115.311 58.4052 114.788 57.7202 114.807C56.9054 114.83 57.8322 115.95 57.9514 116.14C59.3185 118.311 61.1759 120.107 63.2019 121.665C68.1298 125.453 73.9134 128.104 79.9098 129.697C81.5866 130.143 83.2816 130.53 84.9919 130.822C87.4655 131.244 92.074 132.134 94.6506 130.724C95.6355 130.185 96.4524 129.135 96.6803 128.036C97.1529 125.755 95.38 121.773 94.4233 119.886C94.0537 119.156 93.5719 118.485 93.0637 117.844C92.9211 117.665 92.7083 117.542 92.4955 117.456C92.4439 117.436 92.3826 117.62 92.3701 117.566C92.2133 116.886 93.003 115.825 92.3858 115.184C91.9567 114.738 91.3323 114.499 90.7362 114.333C88.1951 113.629 83.9571 113.395 81.5437 113.397C79.8103 113.398 78.0598 113.398 76.3519 113.695C75.376 113.864 74.3158 114.111 73.5856 114.78C73.2397 115.097 73.2596 115.902 73.6326 116.187C74.6292 116.947 75.9373 117.206 77.1552 117.503C80.9099 118.419 87.5048 119.055 91.1789 119.854C92.4503 120.131 93.8326 120.313 94.8857 121.077C95.206 121.309 94.3636 121.68 94.1765 122.029C94.0906 122.189 93.9067 122.54 94.0863 122.566C95.4933 122.767 96.9285 122.647 98.3495 122.625C100.339 122.593 102.325 122.48 104.313 122.401C105.125 122.369 105.992 121.993 106.747 122.291C107.272 122.5 105.637 122.526 105.105 122.715C82.0725 130.877 120.431 117.295 99.5799 125.763" stroke="#4CCE8E" stroke-width="10" stroke-linecap="round"/>
<path d="M78.4882 121.883C82.3569 122.125 86.2309 122.293 90.0943 122.608C92.6091 122.813 95.1396 122.967 97.6176 123.443C98.1206 123.539 99.2828 123.962 98.8949 124.297C97.2788 125.691 89.8591 124.516 89.5693 124.458C83.2125 123.168 79.1986 121.089 73.2298 118.631C70.1671 117.37 66.4166 115.02 70.0716 118.623C74.4709 122.96 76.107 123.538 80.032 128.4C80.5911 129.092 83.171 131.991 82.0892 133.728C81.6043 134.507 79.9895 134.154 79.4129 134.112C79.0922 134.09 78.1776 134.04 78.4529 134.206C79.0011 134.537 80.9139 135.124 81.2036 135.214C84.1792 136.136 87.2168 136.854 90.2315 137.635C92.9254 138.333 95.6116 138.96 98.4169 138.63C101.328 138.288 104.327 137.076 106.814 135.554C107.444 135.169 108.17 134.861 108.628 134.281C110.033 132.501 106.168 132.446 105.995 132.431C102.967 132.178 95.5175 132.555 92.7666 132.62C87.7649 132.737 86.9434 132.796 82.4457 132.486C82.3933 132.483 79.1149 132.057 78.5587 132.283C77.7308 132.618 80.0373 133.359 80.9019 133.583C84.544 134.531 88.6537 135.025 92.32 135.621C95.1311 136.078 100.294 136.761 103.221 137.917C104.92 138.589 104.846 139.009 105.611 140.237C105.76 140.475 105.929 140.7 106.085 140.934C106.164 141.053 106.302 141.153 106.316 141.295C106.323 141.367 106.086 141.284 106.113 141.216C106.201 140.994 106.363 140.786 106.567 140.66C107.988 139.786 110.634 138.835 112.037 138.246C114.028 137.411 116.822 136.6 117.719 134.351C118.189 133.172 118.04 132.046 117.985 130.841" stroke="#4CCE8E" stroke-width="10" stroke-linecap="round"/>
<path d="M119.538 124.705C117.96 125.29 117.238 125.529 115.682 126.225C115.01 126.526 114.347 126.849 113.688 127.177C113.067 127.486 112.493 127.898 111.842 128.137C110.472 128.641 110.368 128.458 110.048 127.079C109.817 126.088 109.877 125.035 109.578 124.062C108.56 120.755 107.587 119.102 104.664 117.04C98.0023 112.342 103.62 117.426 98.1947 114.454C96.0018 113.253 96.5236 110.224 97.4699 108.404C97.6737 108.012 98.0437 107.691 98.4455 107.507C98.571 107.45 98.6765 107.819 98.567 107.903C96.9243 109.164 94.4281 108.667 92.6464 108.103C91.5314 107.749 91.3897 107.502 90.4834 107.049C90.2755 106.945 89.8045 106.911 89.8839 106.692C89.952 106.505 90.7073 105.989 90.7146 105.983C91.2555 105.563 91.6884 105.133 92.1487 104.635C93.1112 103.594 94.4991 102.968 95.6909 102.233C96.1733 101.936 96.7876 101.653 97.0702 101.132C97.285 100.736 97.5456 100.298 97.6893 99.8703C97.7364 99.7302 97.6999 99.5697 97.752 99.4314C97.9442 98.9204 98.7155 99.2369 99.0137 99.3413C101.421 100.184 103.692 101.62 105.847 102.958C108.64 104.692 111.423 106.45 114.201 108.209C114.655 108.496 116.615 109.447 116.603 110.446C116.588 111.686 114.697 112.75 113.978 113.185C112.515 114.07 112.809 114.137 112.626 113.342C112.582 113.15 112.668 112.818 112.477 112.769C111.719 112.576 110.385 113.476 110.212 114.133C109.9 115.32 111.476 117.15 111.983 117.801C112.496 118.457 112.968 119.167 113.613 119.693C115.467 121.204 116.437 120.977 118.848 120.661C119.552 120.569 123.933 119.494 125.079 119.536C127.574 119.629 124.528 122.585 124.334 123.083" stroke="#4CCE8E" stroke-width="10" stroke-linecap="round"/>
<path d="M103.177 110.105C103.528 110.275 104.037 110.345 104.411 110.352C104.846 110.36 105.007 110.396 105.125 109.98C105.352 109.172 104.849 109.702 105.583 108.781C106.561 107.553 107.813 106.567 108.788 105.325C109.388 104.56 109.743 103.836 110.105 102.966C110.185 102.773 110.262 102.533 110.52 102.554C111.307 102.62 112.238 103.173 112.942 103.491C113.893 103.92 114.786 104.449 115.692 104.964C117.467 105.973 119.275 106.93 120.998 108.028C123.052 109.338 124.963 110.766 127.353 111.39C127.726 111.488 128.359 111.556 128.631 111.892C129.198 112.593 128.933 114.148 128.78 114.917C128.537 116.133 127.98 117.129 127.208 118.087C126.917 118.448 125.992 119.707 125.277 119.65C124.231 119.567 123.819 117.517 123.662 117.091C123.472 116.575 122.396 112.281 121.1 115.019C119.918 117.514 120.209 121.844 123.733 122.017C124.385 122.049 125.028 121.818 125.657 121.641C126.161 121.498 126.628 121.247 127.118 121.061C127.369 120.965 127.61 120.802 127.878 120.794C128.824 120.766 127.555 124.002 127.494 124.152C126.93 125.554 126.207 126.908 125.48 128.231C125.448 128.29 124.332 130.259 124.242 130.355C124.137 130.466 123.856 130.601 123.795 130.461C123.586 129.977 123.611 129.417 123.607 128.89C123.56 121.837 125.307 114.752 124.477 107.703C124.462 107.569 124.412 106.417 124.109 106.249C123.847 106.104 123.475 106.875 123.396 106.978C122.737 107.83 121.562 105.138 121.162 104.682C119.857 103.195 117.804 102.295 116.045 101.469C110.891 99.0491 105.566 97.0174 100.215 95.082" stroke="#4CCE8E" stroke-width="10" stroke-linecap="round"/>
<path d="M97.5312 95.6465C97.7115 95.6137 97.8413 95.4609 98.0093 95.3957C98.2422 95.3054 98.5387 95.2846 98.7851 95.239C99.2337 95.1559 99.7084 95.1559 100.141 95.0117" stroke="#4CCE8E" stroke-width="10" stroke-linecap="round"/>
<path d="M40.0977 56.9033C41.225 59.0228 41.6752 61.4109 42.5567 63.6273C42.8298 64.3139 43.2232 64.8967 43.6005 65.5292C44.5532 67.1264 45.3391 68.8108 46.2069 70.4537C48.6638 75.1054 51.5666 79.7461 54.7816 83.9017C61.9495 93.1669 72.1268 99.6962 81.8248 106.008" stroke="#4CCE8E" stroke-width="10" stroke-linecap="round"/>
<path d="M37.8786 2.33586C37.465 2.65015 36.6793 2.72379 36.234 2.45086C35.897 2.24435 35.73 2.1914 35.3369 2.1691C33.3912 2.0587 31.4748 2.74622 29.5694 3.07189C27.63 3.40337 25.7724 3.94512 23.9226 4.61297C21.5715 5.46183 19.1537 6.40457 17.0625 7.78713C15.7929 8.62656 14.5767 9.57823 13.3766 10.5128C11.9346 11.6356 10.5073 12.8229 9.45489 14.3367C8.27918 16.0278 7.61439 18.0673 7.02827 20.018C6.63709 21.3199 6.18537 23.0667 5.88396 24.4055C4.89616 28.793 6.0676 23.7288 5.42969 26.9183" stroke="#4CCE8E" stroke-width="3" stroke-linecap="round"/>
<path d="M6.41069 20.7598C6.23032 21.3249 5.9975 21.863 5.76954 22.4101C5.39995 23.2971 5.1573 24.2239 4.88687 25.1444C4.05291 27.9827 3.38679 30.8317 2.97202 33.764C2.50192 37.0875 2.09762 40.5306 2.535 43.8759C3.03432 47.6951 4.06522 51.4403 4.96162 55.1753" stroke="#4CCE8E" stroke-width="3" stroke-linecap="round"/>
<path d="M5.22266 55.7441C5.40622 56.8235 5.76958 57.7805 6.26921 58.7515C6.60234 59.399 6.91309 60.0525 7.18926 60.7268C7.68509 61.9374 8.00373 63.2125 8.5147 64.4156C9.66068 67.1137 11.5544 69.378 13.0833 71.8536C14.393 73.9742 15.4875 76.2197 16.7635 78.36" stroke="#4CCE8E" stroke-width="3" stroke-linecap="round"/>
<path d="M16.5039 78.3604C17.4107 80.9513 18.7905 83.4154 20.2646 85.7207C21.4368 87.5539 22.6553 89.3752 24.0598 91.0397" stroke="#4CCE8E" stroke-width="3" stroke-linecap="round"/>
<path d="M51.8984 19.0176C52.3593 20.297 52.8164 21.5529 53.1175 22.8778" stroke="#4CCE8E" stroke-width="3" stroke-linecap="round"/>
<path d="M52.2056 17.5957C52.5439 19.0379 52.9514 20.4312 53.4585 21.8228C53.9634 23.2083 54.1827 24.5763 54.3502 26.0386C54.8317 30.2406 55.6471 34.4027 55.4564 38.6465C55.4053 39.7827 55.512 41.1504 55.1742 42.2528C55.0377 42.698 54.7098 43.1082 54.4744 43.5C54.1383 44.0593 53.8437 44.684 53.4077 45.1762C53.1148 45.5069 52.8274 45.6778 52.4483 45.9212C51.1499 46.7545 49.7967 47.5005 48.4695 48.2859C45.9559 49.7734 43.5396 51.3577 41.2344 53.1507" stroke="#4CCE8E" stroke-width="3" stroke-linecap="round"/>
<path d="M52.0273 15.8252C52.3539 16.4456 52.5901 17.1317 52.8182 17.7933C53.2471 19.0375 53.63 20.3193 53.8626 21.6147C54.5859 25.6423 54.1609 29.6062 53.44 33.5923" stroke="#4CCE8E" stroke-width="3" stroke-linecap="round"/>
<path d="M43.9676 51.4619C43.8948 53.1725 43.5377 54.768 43.2422 56.4489" stroke="#4CCE8E" stroke-width="3" stroke-linecap="round"/>
<path d="M24.6523 91.7207C25.3561 93.0062 26.0988 94.2456 27.03 95.3829C28.7657 97.5028 30.8444 99.3662 32.7575 101.322C35.4446 104.069 38.5009 106.285 41.5478 108.616C44.8733 111.16 48.129 113.791 51.416 116.384C54.3655 118.711 57.3837 120.92 60.3776 123.184" stroke="#4CCE8E" stroke-width="3" stroke-linecap="round"/>
<path d="M40.6094 108.404C41.0283 109.023 41.5645 109.573 42.0601 110.127C43.3822 111.606 44.6886 113.092 46.1807 114.404C47.9735 115.98 49.7236 117.576 51.4599 119.215C53.8278 121.449 56.3649 123.391 59.0463 125.234C63.939 128.598 68.785 132.067 73.8159 135.223C75.7206 136.418 77.6416 137.57 79.4779 138.87C80.4735 139.575 81.453 140.243 82.5004 140.865" stroke="#4CCE8E" stroke-width="3" stroke-linecap="round"/>
<path d="M24.0195 91.3584C24.5838 92.7127 25.5829 93.6092 26.5584 94.678C27.4105 95.6117 28.1094 96.6403 28.8957 97.6249C30.232 99.2982 31.8323 100.676 33.515 101.987C34.9114 103.075 36.2457 104.198 37.5248 105.423C38.8453 106.688 40.038 108.09 41.3885 109.322C41.9791 109.86 42.685 110.227 43.2473 110.803C43.8249 111.394 44.2617 112.06 44.693 112.757" stroke="#4CCE8E" stroke-width="3" stroke-linecap="round"/>
<path d="M33.3555 100.697C34.1665 101.589 34.652 102.815 35.4107 103.77C36.6653 105.35 38.0945 106.853 39.6018 108.193C41.1558 109.574 42.7398 110.841 44.1758 112.359C46.2351 114.536 48.2833 116.713 50.402 118.832" stroke="#4CCE8E" stroke-width="3" stroke-linecap="round"/>
<path d="M7.39844 61.2988C8.03034 63.8264 9.30901 66.1868 10.5081 68.4841C11.9985 71.3394 13.6498 74.0962 15.2826 76.8708C17.4409 80.5384 19.3282 84.3499 21.8946 87.7625C24.9371 91.8083 28.2741 95.644 31.4278 99.6044" stroke="#4CCE8E" stroke-width="3" stroke-linecap="round"/>
<path d="M82.2305 139.721C84.3102 140.067 86.331 141.19 88.2932 141.925" stroke="#4CCE8E" stroke-width="3" stroke-linecap="round"/>
<path d="M82.4141 140.089C83.2991 141.587 85.0136 142.01 86.558 142.559C89.2343 143.511 91.8386 144.341 94.6417 144.825C97.8777 145.383 101.395 146.016 104.685 145.519C106.771 145.203 108.69 144.13 110.707 143.58" stroke="#4CCE8E" stroke-width="3" stroke-linecap="round"/>
<path d="M83.8711 102.319L89.0891 101.36" stroke="#4CCE8E" stroke-width="3" stroke-linecap="round"/>
<path d="M82.3789 100.935C84.7589 101.005 87.0456 100.979 89.4073 100.615" stroke="#4CCE8E" stroke-width="3" stroke-linecap="round"/>
<path d="M123.922 100.951C125.16 101.258 126.389 101.723 127.541 102.268C128.35 102.65 129.096 103.152 129.688 103.828C130.212 104.426 130.631 105.107 131.138 105.718C131.215 105.811 131.42 106.044 131.497 106.149C131.712 106.443 131.522 106.25 131.503 106.399" stroke="#4CCE8E" stroke-linecap="round"/>
<path d="M122.516 99.8281C123.147 99.93 123.62 100.209 124.126 100.596C124.489 100.873 124.826 101.183 125.193 101.457C125.646 101.795 126.147 102.051 126.621 102.355C127.156 102.698 127.601 103.136 128.075 103.553C128.394 103.833 128.497 103.914 128.824 104.171C128.965 104.282 129.158 104.35 129.242 104.508C129.306 104.628 128.989 104.407 128.868 104.346C128.611 104.216 128.357 104.082 128.1 103.953C127.94 103.871 127.817 103.811 127.682 103.703" stroke="#4CCE8E" stroke-linecap="round"/>
<path d="M121.168 99.1543C122.236 99.3679 123.218 99.9272 124.144 100.471C124.722 100.81 125.268 101.191 125.879 101.469C126.55 101.776 127.231 102.039 127.863 102.424C129.19 103.231 130.657 104.072 131.763 105.17C132.134 105.537 132.399 106.076 132.656 106.524C132.978 107.087 133.28 107.652 133.635 108.196" stroke="#4CCE8E" stroke-linecap="round"/>
<path d="M133.468 107.803C133.733 108.067 133.802 108.531 133.918 108.873C134.159 109.584 134.297 110.316 134.398 111.06C134.555 112.223 134.564 113.405 134.414 114.57C134.216 116.108 133.721 117.483 133.188 118.922" stroke="#4CCE8E" stroke-linecap="round"/>
<path d="M132.344 105.107C132.65 105.713 132.984 106.303 133.217 106.942C133.514 107.753 133.712 108.594 133.916 109.432" stroke="#4CCE8E" stroke-linecap="round"/>
<path d="M132.513 105.332C131.886 104.831 131.569 104.067 130.89 103.591C130.234 103.131 129.478 102.846 128.744 102.536C127.95 102.201 127.158 101.858 126.379 101.488C125.044 100.855 123.802 100.062 122.529 99.3166C120.994 98.4187 119.43 97.6374 117.818 96.8893C116.646 96.3458 115.467 95.7966 114.323 95.1983C112.539 94.2651 110.636 93.6679 108.745 92.9925C105.816 91.9466 102.977 90.4552 99.8281 90.1689" stroke="#4CCE8E" stroke-linecap="round"/>
<path d="M99.9383 90.1688C98.0664 89.5449 96.0057 90.1766 94.494 91.3919C93.4377 92.2411 92.8164 93.4812 92.0011 94.5368C91.5508 95.1198 91.0503 95.6622 90.5753 96.2247C89.9521 96.9627 89.3491 97.6897 88.6129 98.3213C88.0772 98.7809 87.5103 99.2084 86.8345 99.4413C86.0096 99.7257 85.1094 99.7959 84.2481 99.875C83.3644 99.9561 82.4806 100.016 81.5992 100.121C81.2093 100.168 80.7755 100.23 80.3824 100.284C80.1711 100.313 80.1468 100.315 80.526 100.259C81.6876 100.088 82.8535 99.9425 84.0109 99.744C89.5091 98.8008 81.9596 100.061 86.8251 99.1949C86.8403 99.1922 87.86 98.9198 88.095 99.1761C88.1889 99.2786 87.9008 99.7638 87.9577 99.7533C88.4125 99.6699 88.9496 99.3389 89.3804 99.1543" stroke="#4CCE8E" stroke-linecap="round"/>
</svg>
