<svg width="377" height="270" viewBox="0 0 377 270" fill="none" xmlns="http://www.w3.org/2000/svg">
<path d="M266.93 208.896C257.505 205.241 242.105 204.117 235.373 201.211C230.66 199.15 223.171 196.994 220.814 193.714C218.374 190.528 218.374 167.379 218.374 167.379C218.374 167.379 224.265 161.288 226.705 154.446C229.145 147.605 230.744 129.049 230.744 129.049C230.744 129.049 231.249 129.236 232.007 129.236C233.774 129.236 236.971 127.924 238.486 119.302C240.338 108.712 243.872 103.183 242.946 95.4044C242.273 90.1562 240.253 89.3127 239.075 89.3127C238.486 89.3127 238.065 89.5002 238.065 89.5002C238.065 89.5002 242.862 81.6279 242.862 54.8247C242.862 27.2718 223.76 0.0937175 188.5 0C153.156 0.0937175 134.138 27.2718 134.138 54.8247C134.138 81.5342 138.935 89.5002 138.935 89.5002C138.935 89.5002 138.514 89.3127 137.925 89.3127C136.663 89.3127 134.643 90.1562 134.054 95.4044C133.128 103.183 136.578 108.806 138.514 119.302C140.029 127.924 143.226 129.236 144.994 129.236C145.751 129.236 146.256 129.049 146.256 129.049C146.256 129.049 147.855 147.699 150.295 154.446C152.736 161.288 158.626 167.379 158.626 167.379C158.626 167.379 158.626 190.528 156.186 193.714C153.745 196.9 146.34 199.15 141.628 201.211C134.895 204.117 119.496 205.241 110.071 208.896C100.646 212.551 71.5291 227.827 71.5291 270H305.471C305.471 227.827 276.439 212.551 266.93 208.896Z" fill="#4CCE8E"/>
<path d="M94.3342 196.9C101.908 192.683 109.313 192.683 115.036 191.84C115.036 191.84 118.233 186.029 107.714 183.967C107.714 183.967 93.3244 179.938 91.6413 177.688C89.9583 175.439 90.9681 162.975 90.9681 162.975C90.9681 162.975 111.08 162.225 119.075 154.353C106.031 132.61 113.016 107.213 110.323 83.5023C107.714 59.8855 95.0074 45.0781 70.6875 45.0781C70.6034 45.0781 70.6875 45.0781 69.846 45.0781C46.2835 45.0781 34.1656 59.8855 31.4728 83.596C28.7799 107.307 36.5219 135.515 23.1417 154.54C30.6313 161.944 49.1447 162.319 51.2485 162.319C51.4168 162.319 51.4168 162.319 51.4168 162.319L51.5009 162.225C51.5009 162.225 52.3424 175.533 50.6594 177.782C48.9764 180.031 44.0114 182.093 40.6453 182.937C33.24 184.717 25.4138 187.622 18.9342 190.153C12.4545 192.589 0 207.209 0 225.016H67.4897C69.3411 217.518 82.048 203.835 94.3342 196.9Z" fill="#4CCE8E"/>
<path d="M309.51 225.016H377C377 207.209 364.545 192.589 358.066 190.059C351.586 187.529 343.676 184.623 336.354 182.843C332.904 181.999 328.023 179.938 326.34 177.688C324.657 175.439 325.499 162.131 325.499 162.131L325.583 162.225C325.583 162.225 325.667 162.225 325.751 162.225C327.855 162.225 346.453 161.944 353.942 154.446C340.562 135.422 348.22 107.213 345.527 83.5023C342.834 59.8855 330.716 45.0781 307.154 45.0781C306.312 45.0781 306.312 45.0781 306.312 45.0781C281.992 45.0781 269.201 59.8855 266.593 83.596C263.9 107.307 270.884 132.704 257.841 154.446C265.835 162.319 285.948 163.068 285.948 163.068C285.948 163.068 286.957 175.533 285.274 177.782C283.591 180.031 269.201 184.061 269.201 184.061C258.682 186.123 261.88 191.933 261.88 191.933C267.602 192.777 275.092 192.777 282.581 196.994C294.952 203.836 307.659 217.518 309.51 225.016Z" fill="#4CCE8E"/>
</svg>
