<svg width="205" height="199" viewBox="0 0 205 199" fill="none" xmlns="http://www.w3.org/2000/svg">
<path d="M195.64 144.388C187.138 135.908 162.973 120.022 147.134 120.022C143.465 120.022 140.263 120.813 137.642 122.453C129.897 127.258 123.725 130.989 120.755 130.989C119.125 130.989 117.378 129.576 113.535 126.354L112.894 125.788C102.238 116.799 99.9667 114.482 95.8323 110.298L94.7841 109.224C94.0271 108.489 93.3866 107.811 92.7461 107.189C89.1357 103.57 86.5154 100.97 77.2566 90.7938L76.849 90.3415C72.4235 85.4795 69.5119 82.3136 69.3372 79.9957C69.1625 77.7344 71.2006 74.0597 76.3832 67.219C82.6721 58.9651 82.905 48.7889 77.1402 36.9733C72.5399 27.6452 65.0281 18.7128 58.3898 10.8545L57.8075 10.1761C52.1008 3.39205 45.4625 0 38.0672 0C29.8566 0 23.0436 4.29659 19.4333 6.55795C19.1421 6.72756 18.851 6.95369 18.5598 7.12329C10.4657 12.0983 4.58438 18.9389 2.3716 25.8926C-0.947565 36.3514 -3.16034 49.9196 12.7367 78.1301C26.4792 102.553 38.9406 118.948 58.7392 138.678C77.3731 157.221 85.6419 163.214 104.159 176.217C124.773 190.689 144.572 199 158.431 199C171.3 199 181.432 199 195.873 182.096C211.013 164.345 204.724 153.49 195.64 144.388Z" fill="#4ABD7F"/>
</svg>
