<svg width="8421" height="6178" viewBox="0 0 8421 6178" fill="none" xmlns="http://www.w3.org/2000/svg">
<rect x="0.000488281" width="8419.88" height="6120" fill="white"/>
<path d="M136.53 6113.03L21.3192 6108.5L29.8024 5937.64C77.957 5892.01 176.329 5899.88 267.516 5889.23C264.746 5938.8 162.629 6093.52 136.53 6113.03Z" fill="#288B06" stroke="black"/>
<path d="M8199.93 6120.93C8146.27 6086.18 8129.23 5989.73 8118.22 5920C8264.72 5920.63 8368.37 5995.43 8419.73 6121.87L8199.93 6120.93Z" fill="#288B06" stroke="black"/>
<path d="M800.505 5334.59C570.296 5346.07 206.747 5494.5 370.479 5796.36C734.484 5754.62 851.101 5578.06 800.505 5334.59Z" fill="#288B06" stroke="black"/>
<path d="M7751.9 5363.06C7769.77 5545.55 7894.73 5832.18 8112.19 5698.71C8066.43 5410.44 7930.6 5320.03 7751.9 5363.06Z" fill="#288B06" stroke="black"/>
<path d="M1104.57 5697.93C871.543 5605.81 433.986 5757.08 382.608 6062.16C766.426 6179.1 995.635 6017.8 1104.57 5697.93Z" fill="#288B06" stroke="black"/>
<path d="M7452.51 5713.25C7482.04 5913.79 7737.8 6171.4 7945.34 6096.27C7929.65 5752.37 7702.86 5609.31 7452.51 5713.25Z" fill="#288B06" stroke="black"/>
<path d="M3.13036 5213C310.382 5448.46 417.29 5633.9 73.0623 5862C58.7227 5849.42 6.76382 5836.79 4.56891 5799.12C-5.03015 5634.37 3.54459 5381.76 3.13036 5213Z" fill="#288B06"/>
<path d="M8403.23 5208.06C8157.9 5448.88 8074.78 5636.17 8360.29 5858.14C8371.7 5845.31 8413.78 5831.76 8414.75 5794.06C8419 5629.18 8406.54 5376.78 8403.23 5208.06Z" fill="#288B06"/>
</svg>
